<svg width="14000" height="14000" viewBox="0 0 14000 14000" fill="none" xmlns="http://www.w3.org/2000/svg">
<g clip-path="url(#clip0_16_474)">
<rect width="14000" height="14000" rx="2048" fill="#23272A"/>
<path fill-rule="evenodd" clip-rule="evenodd" d="M7000 12264C9907.23 12264 12264 9907.23 12264 7000C12264 4092.77 9907.23 1736 7000 1736C4092.77 1736 1736 4092.77 1736 7000C1736 9907.23 4092.77 12264 7000 12264ZM7000 10290C8817.02 10290 10290 8817.02 10290 7000C10290 5182.98 8817.02 3710 7000 3710C5182.98 3710 3710 5182.98 3710 7000C3710 8817.02 5182.98 10290 7000 10290Z" fill="white"/>
<path fill-rule="evenodd" clip-rule="evenodd" d="M10722.6 7000.4L7000.4 3278.19L3278.19 7000.4L7000.4 10722.6L10722.6 7000.4ZM8229.95 6255.96L7744.84 5770.84C7484.26 5510.26 7353.97 5379.97 7203.73 5331.15C7071.57 5288.22 6929.22 5288.22 6797.06 5331.15C6646.82 5379.97 6516.53 5510.26 6255.95 5770.84L5770.84 6255.96C5510.26 6516.53 5379.97 6646.82 5331.15 6797.06C5288.21 6929.22 5288.21 7071.58 5331.15 7203.73C5379.97 7353.97 5510.26 7484.26 5770.84 7744.84L6255.95 8229.96C6516.53 8490.53 6646.82 8620.82 6797.06 8669.64C6929.22 8712.58 7071.57 8712.58 7203.73 8669.64C7353.97 8620.82 7484.26 8490.53 7744.84 8229.96L8229.95 7744.84C8490.53 7484.26 8620.82 7353.97 8669.64 7203.73C8712.58 7071.58 8712.58 6929.22 8669.64 6797.06C8620.82 6646.82 8490.53 6516.53 8229.95 6255.96Z" fill="white"/>
</g>
<defs>
<clipPath id="clip0_16_474">
<rect width="14000" height="14000" rx="2048" fill="white"/>
</clipPath>
</defs>
</svg>
