<svg width="2048" height="2048" viewBox="0 0 2048 2048" fill="none" xmlns="http://www.w3.org/2000/svg">
<g clip-path="url(#clip0_6_129)">
<g clip-path="url(#clip1_6_129)">
<path fill-rule="evenodd" clip-rule="evenodd" d="M1024 2048C1589.54 2048 2048 1589.54 2048 1024C2048 458.46 1589.54 0 1024 0C458.46 0 0 458.46 0 1024C0 1589.54 458.46 2048 1024 2048ZM1024 1664C1377.46 1664 1664 1377.46 1664 1024C1664 670.538 1377.46 384 1024 384C670.538 384 384 670.538 384 1024C384 1377.46 670.538 1664 1024 1664Z" fill="#23272A"/>
<path fill-rule="evenodd" clip-rule="evenodd" d="M1748.08 1024L1024 299.922L299.923 1024L1024 1748.08L1748.08 1024ZM1263.18 879.184L1168.82 784.815C1118.13 734.125 1092.78 708.779 1063.55 699.283C1037.85 690.93 1010.15 690.93 984.446 699.283C955.22 708.779 929.875 734.125 879.184 784.815L784.815 879.184C734.125 929.874 708.78 955.219 699.284 984.445C690.931 1010.15 690.931 1037.85 699.284 1063.55C708.78 1092.78 734.125 1118.12 784.816 1168.81L879.184 1263.18C929.875 1313.87 955.22 1339.22 984.446 1348.72C1010.15 1357.07 1037.85 1357.07 1063.55 1348.72C1092.78 1339.22 1118.13 1313.87 1168.82 1263.18L1263.18 1168.81C1313.87 1118.12 1339.22 1092.78 1348.72 1063.55C1357.07 1037.85 1357.07 1010.15 1348.72 984.445C1339.22 955.219 1313.87 929.874 1263.18 879.184Z" fill="#23272A"/>
</g>
</g>
<defs>
<clipPath id="clip0_6_129">
<rect width="2048" height="2048" fill="white"/>
</clipPath>
<clipPath id="clip1_6_129">
<rect width="2048" height="2048" fill="white"/>
</clipPath>
</defs>
</svg>
