<svg width="2048" height="2048" viewBox="0 0 2048 2048" fill="none" xmlns="http://www.w3.org/2000/svg">
<g clip-path="url(#clip0_4_6)">
<g clip-path="url(#clip1_4_6)">
<path fill-rule="evenodd" clip-rule="evenodd" d="M1024 2048C1589.54 2048 2048 1589.54 2048 1024C2048 458.46 1589.54 0 1024 0C458.46 0 0 458.46 0 1024C0 1589.54 458.46 2048 1024 2048ZM1024 1664C1377.46 1664 1664 1377.46 1664 1024C1664 670.538 1377.46 384 1024 384C670.538 384 384 670.538 384 1024C384 1377.46 670.538 1664 1024 1664Z" fill="white"/>
<path fill-rule="evenodd" clip-rule="evenodd" d="M1748.15 1024.08L1024.08 300L300 1024.08L1024.08 1748.15L1748.15 1024.08ZM1263.26 879.262L1168.89 784.893C1118.2 734.203 1092.86 708.858 1063.63 699.361C1037.92 691.008 1010.23 691.008 984.523 699.361C955.297 708.858 929.952 734.203 879.262 784.893L784.893 879.262C734.202 929.952 708.857 955.297 699.361 984.523C691.008 1010.23 691.008 1037.92 699.361 1063.63C708.857 1092.86 734.202 1118.2 784.893 1168.89L879.262 1263.26C929.952 1313.95 955.297 1339.3 984.523 1348.79C1010.23 1357.15 1037.92 1357.15 1063.63 1348.79C1092.86 1339.3 1118.2 1313.95 1168.89 1263.26L1263.26 1168.89C1313.95 1118.2 1339.3 1092.86 1348.79 1063.63C1357.15 1037.92 1357.15 1010.23 1348.79 984.523C1339.3 955.297 1313.95 929.952 1263.26 879.262Z" fill="white"/>
</g>
</g>
<defs>
<clipPath id="clip0_4_6">
<rect width="2048" height="2048" fill="white"/>
</clipPath>
<clipPath id="clip1_4_6">
<rect width="2048" height="2048" fill="white"/>
</clipPath>
</defs>
</svg>
