<svg width="1993" height="683" viewBox="0 0 1993 683" fill="none" xmlns="http://www.w3.org/2000/svg">
<path d="M67.62 180.18C67.62 194.46 69.3 207.34 72.66 218.82C76.3 230.3 81.34 240.24 87.78 248.64C94.5 256.76 102.62 263.06 112.14 267.54C121.66 272.02 132.58 274.26 144.9 274.26C156.94 274.26 167.72 272.02 177.24 267.54C187.04 263.06 195.16 256.76 201.6 248.64C208.32 240.24 213.36 230.3 216.72 218.82C220.36 207.34 222.18 194.46 222.18 180.18C222.18 165.9 220.36 153.02 216.72 141.54C213.36 129.78 208.32 119.84 201.6 111.72C195.16 103.32 187.04 96.88 177.24 92.4C167.72 87.92 156.94 85.68 144.9 85.68C132.58 85.68 121.66 88.06 112.14 92.82C102.62 97.3 94.5 103.74 87.78 112.14C81.34 120.26 76.3 130.2 72.66 141.96C69.3 153.44 67.62 166.18 67.62 180.18ZM289.8 180.18C289.8 205.1 286.02 227.08 278.46 246.12C271.18 264.88 261.1 280.7 248.22 293.58C235.34 306.18 219.94 315.7 202.02 322.14C184.38 328.58 165.34 331.8 144.9 331.8C125.02 331.8 106.26 328.58 88.62 322.14C70.98 315.7 55.58 306.18 42.42 293.58C29.26 280.7 18.9 264.88 11.34 246.12C3.78 227.08 0 205.1 0 180.18C0 155.26 3.92 133.42 11.76 114.66C19.6 95.62 30.1 79.66 43.26 66.78C56.7 53.9 72.1 44.24 89.46 37.8C107.1 31.36 125.58 28.14 144.9 28.14C164.78 28.14 183.54 31.36 201.18 37.8C218.82 44.24 234.22 53.9 247.38 66.78C260.54 79.66 270.9 95.62 278.46 114.66C286.02 133.42 289.8 155.26 289.8 180.18Z" fill="black"/>
<path d="M338.116 49.98L400.696 39.9V105H475.876V157.08H400.696V234.78C400.696 247.94 402.936 258.44 407.416 266.28C412.176 274.12 421.556 278.04 435.556 278.04C442.276 278.04 449.136 277.48 456.136 276.36C463.416 274.96 469.996 273.14 475.876 270.9L484.696 319.62C477.136 322.7 468.736 325.36 459.496 327.6C450.256 329.84 438.916 330.96 425.476 330.96C408.396 330.96 394.256 328.72 383.056 324.24C371.856 319.48 362.896 313.04 356.176 304.92C349.456 296.52 344.696 286.44 341.896 274.68C339.376 262.92 338.116 249.9 338.116 235.62V49.98Z" fill="black"/>
<path d="M603.054 282.24C609.214 282.24 615.094 282.1 620.694 281.82C626.294 281.54 630.774 281.12 634.134 280.56V233.1C631.614 232.54 627.834 231.98 622.794 231.42C617.754 230.86 613.134 230.58 608.934 230.58C603.054 230.58 597.454 231 592.134 231.84C587.094 232.4 582.614 233.66 578.694 235.62C574.774 237.58 571.694 240.24 569.454 243.6C567.214 246.96 566.094 251.16 566.094 256.2C566.094 266 569.314 272.86 575.754 276.78C582.474 280.42 591.574 282.24 603.054 282.24ZM598.014 99.12C616.494 99.12 631.894 101.22 644.214 105.42C656.534 109.62 666.334 115.64 673.614 123.48C681.174 131.32 686.494 140.84 689.574 152.04C692.654 163.24 694.194 175.7 694.194 189.42V319.62C685.234 321.58 672.774 323.82 656.814 326.34C640.854 329.14 621.534 330.54 598.854 330.54C584.574 330.54 571.554 329.28 559.794 326.76C548.314 324.24 538.374 320.18 529.974 314.58C521.574 308.7 515.134 301.14 510.654 291.9C506.174 282.66 503.934 271.32 503.934 257.88C503.934 245 506.454 234.08 511.494 225.12C516.814 216.16 523.814 209.02 532.494 203.7C541.174 198.38 551.114 194.6 562.314 192.36C573.514 189.84 585.134 188.58 597.174 188.58C605.294 188.58 612.434 189 618.594 189.84C625.034 190.4 630.214 191.24 634.134 192.36V186.48C634.134 175.84 630.914 167.3 624.474 160.86C618.034 154.42 606.834 151.2 590.874 151.2C580.234 151.2 569.734 152.04 559.374 153.72C549.014 155.12 540.054 157.22 532.494 160.02L524.514 109.62C528.154 108.5 532.634 107.38 537.954 106.26C543.554 104.86 549.574 103.74 556.014 102.9C562.454 101.78 569.174 100.94 576.174 100.38C583.454 99.54 590.734 99.12 598.014 99.12Z" fill="black"/>
<path d="M813.363 184.8C819.523 178.08 825.823 171.08 832.263 163.8C838.983 156.52 845.423 149.38 851.583 142.38C857.743 135.1 863.483 128.24 868.803 121.8C874.403 115.36 879.163 109.76 883.083 105H957.423C942.583 122.08 928.023 138.46 913.743 154.14C899.743 169.54 884.343 185.5 867.543 202.02C875.943 209.58 884.623 218.68 893.583 229.32C902.543 239.68 911.223 250.46 919.623 261.66C928.023 272.86 935.723 284.06 942.723 295.26C949.723 306.46 955.603 316.68 960.363 325.92H888.543C884.063 318.64 878.883 310.66 873.003 301.98C867.403 293.02 861.383 284.2 854.943 275.52C848.503 266.56 841.643 258.02 834.363 249.9C827.363 241.78 820.363 234.92 813.363 229.32V325.92H750.783V10.08L813.363 0V184.8Z" fill="black"/>
<path d="M1178.48 318.36C1167.84 321.44 1154.12 324.24 1137.32 326.76C1120.52 329.56 1102.88 330.96 1084.4 330.96C1065.64 330.96 1049.96 328.44 1037.36 323.4C1025.04 318.36 1015.24 311.36 1007.96 302.4C1000.68 293.16 995.504 282.24 992.424 269.64C989.344 257.04 987.804 243.18 987.804 228.06V105H1050.38V220.5C1050.38 240.66 1053.04 255.22 1058.36 264.18C1063.68 273.14 1073.62 277.62 1088.18 277.62C1092.66 277.62 1097.42 277.48 1102.46 277.2C1107.5 276.64 1111.98 276.08 1115.9 275.52V105H1178.48V318.36Z" fill="black"/>
<path d="M1237.23 112.56C1247.87 109.48 1261.59 106.68 1278.39 104.16C1295.19 101.36 1312.83 99.96 1331.31 99.96C1350.07 99.96 1365.61 102.48 1377.93 107.52C1390.53 112.28 1400.47 119.14 1407.75 128.1C1415.03 137.06 1420.21 147.7 1423.29 160.02C1426.37 172.34 1427.91 186.06 1427.91 201.18V325.92H1365.33V208.74C1365.33 188.58 1362.67 174.3 1357.35 165.9C1352.03 157.5 1342.09 153.3 1327.53 153.3C1323.05 153.3 1318.29 153.58 1313.25 154.14C1308.21 154.42 1303.73 154.84 1299.81 155.4V325.92H1237.23V112.56Z" fill="black"/>
<path d="M1547.13 325.92H1484.55V105H1547.13V325.92ZM1553.01 41.16C1553.01 52.64 1549.23 61.74 1541.67 68.46C1534.39 74.9 1525.71 78.12 1515.63 78.12C1505.55 78.12 1496.73 74.9 1489.17 68.46C1481.89 61.74 1478.25 52.64 1478.25 41.16C1478.25 29.68 1481.89 20.72 1489.17 14.28C1496.73 7.55999 1505.55 4.2 1515.63 4.2C1525.71 4.2 1534.39 7.55999 1541.67 14.28C1549.23 20.72 1553.01 29.68 1553.01 41.16Z" fill="black"/>
<path d="M1603.86 49.98L1666.44 39.9V105H1741.62V157.08H1666.44V234.78C1666.44 247.94 1668.68 258.44 1673.16 266.28C1677.92 274.12 1687.3 278.04 1701.3 278.04C1708.02 278.04 1714.88 277.48 1721.88 276.36C1729.16 274.96 1735.74 273.14 1741.62 270.9L1750.44 319.62C1742.88 322.7 1734.48 325.36 1725.24 327.6C1716 329.84 1704.66 330.96 1691.22 330.96C1674.14 330.96 1660 328.72 1648.8 324.24C1637.6 319.48 1628.64 313.04 1621.92 304.92C1615.2 296.52 1610.44 286.44 1607.64 274.68C1605.12 262.92 1603.86 249.9 1603.86 235.62V49.98Z" fill="black"/>
<path d="M1992.82 105C1980.22 147.56 1967.06 187.46 1953.34 224.7C1939.62 261.94 1924.64 298.06 1908.4 333.06C1902.52 345.66 1896.64 356.3 1890.76 364.98C1884.88 373.94 1878.44 381.22 1871.44 386.82C1864.44 392.7 1856.46 396.9 1847.5 399.42C1838.82 402.22 1828.6 403.62 1816.84 403.62C1807.04 403.62 1797.94 402.64 1789.54 400.68C1781.42 399 1774.7 397.04 1769.38 394.8L1780.3 344.82C1786.74 347.06 1792.48 348.6 1797.52 349.44C1802.56 350.28 1807.88 350.7 1813.48 350.7C1824.68 350.7 1833.22 347.62 1839.1 341.46C1845.26 335.58 1850.44 327.32 1854.64 316.68C1840.36 288.68 1826.08 257.32 1811.8 222.6C1797.52 187.6 1784.08 148.4 1771.48 105H1837.84C1840.64 115.92 1843.86 127.82 1847.5 140.7C1851.42 153.3 1855.48 166.18 1859.68 179.34C1863.88 192.22 1868.08 204.82 1872.28 217.14C1876.76 229.46 1880.96 240.66 1884.88 250.74C1888.52 240.66 1892.3 229.46 1896.22 217.14C1900.14 204.82 1903.92 192.22 1907.56 179.34C1911.48 166.18 1915.12 153.3 1918.48 140.7C1922.12 127.82 1925.34 115.92 1928.14 105H1992.82Z" fill="black"/>
<path d="M269.164 418.02V435.72H202.564V625.92H182.164V435.72H115.564V418.02H269.164Z" fill="black"/>
<path d="M277.836 548.22C277.836 534.62 279.736 522.82 283.536 512.82C287.536 502.62 292.636 494.12 298.836 487.32C305.236 480.52 312.436 475.52 320.436 472.32C328.636 468.92 337.036 467.22 345.636 467.22C364.636 467.22 379.736 473.42 390.936 485.82C402.336 498.22 408.036 517.32 408.036 543.12C408.036 544.72 407.936 546.32 407.736 547.92C407.736 549.52 407.636 551.02 407.436 552.42H298.536C299.136 571.42 303.836 586.02 312.636 596.22C321.436 606.42 335.436 611.52 354.636 611.52C365.236 611.52 373.636 610.52 379.836 608.52C386.036 606.52 390.536 604.82 393.336 603.42L396.936 620.22C394.136 621.82 388.836 623.72 381.036 625.92C373.436 628.12 364.436 629.22 354.036 629.22C340.436 629.22 328.836 627.22 319.236 623.22C309.636 619.22 301.736 613.62 295.536 606.42C289.336 599.22 284.836 590.72 282.036 580.92C279.236 570.92 277.836 560.02 277.836 548.22ZM387.936 535.92C387.536 519.72 383.736 507.12 376.536 498.12C369.336 489.12 359.136 484.62 345.936 484.62C338.936 484.62 332.636 486.02 327.036 488.82C321.636 491.62 316.836 495.42 312.636 500.22C308.636 504.82 305.436 510.22 303.036 516.42C300.836 522.62 299.536 529.12 299.136 535.92H387.936Z" fill="black"/>
<path d="M515.691 629.22C503.691 629.22 493.091 627.32 483.891 623.52C474.691 619.72 466.991 614.32 460.791 607.32C454.791 600.12 450.191 591.62 446.991 581.82C443.791 571.82 442.191 560.82 442.191 548.82C442.191 536.62 443.791 525.52 446.991 515.52C450.391 505.52 455.191 496.92 461.391 489.72C467.591 482.52 475.091 477.02 483.891 473.22C492.691 469.22 502.591 467.22 513.591 467.22C521.991 467.22 529.791 467.92 536.991 469.32C544.391 470.72 550.091 472.52 554.091 474.72L548.991 491.52C544.991 489.52 540.491 487.92 535.491 486.72C530.491 485.52 523.791 484.92 515.391 484.92C498.191 484.92 485.091 490.52 476.091 501.72C467.291 512.72 462.891 528.42 462.891 548.82C462.891 558.02 463.891 566.52 465.891 574.32C467.891 581.92 471.091 588.52 475.491 594.12C480.091 599.52 485.891 603.82 492.891 607.02C500.091 610.02 508.791 611.52 518.991 611.52C527.391 611.52 534.391 610.62 539.991 608.82C545.791 606.82 549.991 605.12 552.591 603.72L556.791 620.52C553.191 622.52 547.491 624.42 539.691 626.22C532.091 628.22 524.091 629.22 515.691 629.22Z" fill="black"/>
<path d="M589.48 625.92V396.72L608.98 393.12V475.32C615.38 472.92 621.88 471.12 628.48 469.92C635.08 468.52 641.68 467.82 648.28 467.82C660.28 467.82 670.28 469.52 678.28 472.92C686.28 476.32 692.68 481.22 697.48 487.62C702.28 493.82 705.58 501.32 707.38 510.12C709.38 518.92 710.38 528.62 710.38 539.22V625.92H690.88V545.52C690.88 534.52 690.08 525.22 688.48 517.62C687.08 510.02 684.58 503.82 680.98 499.02C677.58 494.22 672.98 490.82 667.18 488.82C661.38 486.62 654.08 485.52 645.28 485.52C641.88 485.52 638.18 485.82 634.18 486.42C630.38 487.02 626.78 487.72 623.38 488.52C619.98 489.12 616.88 489.82 614.08 490.62C611.48 491.42 609.78 492.02 608.98 492.42V625.92H589.48Z" fill="black"/>
<path d="M760.28 476.22C766.08 474.62 773.88 472.82 783.68 470.82C793.48 468.82 805.48 467.82 819.68 467.82C831.48 467.82 841.281 469.52 849.081 472.92C857.081 476.32 863.38 481.22 867.98 487.62C872.78 493.82 876.18 501.32 878.18 510.12C880.18 518.92 881.18 528.62 881.18 539.22V625.92H861.68V545.52C861.68 534.52 860.88 525.22 859.28 517.62C857.88 510.02 855.38 503.82 851.78 499.02C848.38 494.22 843.78 490.82 837.98 488.82C832.38 486.62 825.28 485.52 816.68 485.52C807.48 485.52 799.48 486.02 792.68 487.02C786.08 488.02 781.78 488.92 779.78 489.72V625.92H760.28V476.22Z" fill="black"/>
<path d="M1063.38 548.52C1063.38 560.72 1061.58 571.82 1057.98 581.82C1054.58 591.82 1049.68 600.32 1043.28 607.32C1037.08 614.32 1029.68 619.82 1021.08 623.82C1012.48 627.62 1002.98 629.52 992.581 629.52C982.181 629.52 972.681 627.62 964.081 623.82C955.481 619.82 947.981 614.32 941.581 607.32C935.381 600.32 930.481 591.82 926.881 581.82C923.481 571.82 921.781 560.72 921.781 548.52C921.781 536.32 923.481 525.22 926.881 515.22C930.481 505.22 935.381 496.72 941.581 489.72C947.981 482.52 955.481 477.02 964.081 473.22C972.681 469.22 982.181 467.22 992.581 467.22C1002.98 467.22 1012.48 469.22 1021.08 473.22C1029.68 477.02 1037.08 482.52 1043.28 489.72C1049.68 496.72 1054.58 505.22 1057.98 515.22C1061.58 525.22 1063.38 536.32 1063.38 548.52ZM1042.68 548.52C1042.68 529.12 1038.18 513.72 1029.18 502.32C1020.18 490.72 1007.98 484.92 992.581 484.92C977.181 484.92 964.981 490.72 955.981 502.32C946.981 513.72 942.481 529.12 942.481 548.52C942.481 567.92 946.981 583.32 955.981 594.72C964.981 606.12 977.181 611.82 992.581 611.82C1007.98 611.82 1020.18 606.12 1029.18 594.72C1038.18 583.32 1042.68 567.92 1042.68 548.52Z" fill="black"/>
<path d="M1144.99 628.62C1138.39 628.42 1132.59 627.52 1127.59 625.92C1122.79 624.52 1118.69 622.32 1115.29 619.32C1112.09 616.12 1109.59 612.12 1107.79 607.32C1106.19 602.32 1105.39 596.12 1105.39 588.72V396.72L1124.89 393.12V588.12C1124.89 592.92 1125.29 596.82 1126.09 599.82C1127.09 602.62 1128.49 604.92 1130.29 606.72C1132.09 608.32 1134.39 609.52 1137.19 610.32C1140.19 611.12 1143.69 611.82 1147.69 612.42L1144.99 628.62Z" fill="black"/>
<path d="M1314.46 548.52C1314.46 560.72 1312.66 571.82 1309.06 581.82C1305.66 591.82 1300.76 600.32 1294.36 607.32C1288.16 614.32 1280.76 619.82 1272.16 623.82C1263.56 627.62 1254.06 629.52 1243.66 629.52C1233.26 629.52 1223.76 627.62 1215.16 623.82C1206.56 619.82 1199.06 614.32 1192.66 607.32C1186.46 600.32 1181.56 591.82 1177.96 581.82C1174.56 571.82 1172.86 560.72 1172.86 548.52C1172.86 536.32 1174.56 525.22 1177.96 515.22C1181.56 505.22 1186.46 496.72 1192.66 489.72C1199.06 482.52 1206.56 477.02 1215.16 473.22C1223.76 469.22 1233.26 467.22 1243.66 467.22C1254.06 467.22 1263.56 469.22 1272.16 473.22C1280.76 477.02 1288.16 482.52 1294.36 489.72C1300.76 496.72 1305.66 505.22 1309.06 515.22C1312.66 525.22 1314.46 536.32 1314.46 548.52ZM1293.76 548.52C1293.76 529.12 1289.26 513.72 1280.26 502.32C1271.26 490.72 1259.06 484.92 1243.66 484.92C1228.26 484.92 1216.06 490.72 1207.06 502.32C1198.06 513.72 1193.56 529.12 1193.56 548.52C1193.56 567.92 1198.06 583.32 1207.06 594.72C1216.06 606.12 1228.26 611.82 1243.66 611.82C1259.06 611.82 1271.26 606.12 1280.26 594.72C1289.26 583.32 1293.76 567.92 1293.76 548.52Z" fill="black"/>
<path d="M1457.86 607.92C1456.66 608.92 1454.86 610.12 1452.46 611.52C1450.06 612.72 1447.06 614.02 1443.46 615.42C1440.06 616.82 1436.06 618.02 1431.46 619.02C1427.06 619.82 1422.06 620.22 1416.46 620.22C1407.46 620.22 1398.76 618.82 1390.36 616.02C1381.96 613.22 1374.56 608.82 1368.16 602.82C1361.96 596.82 1356.96 589.12 1353.16 579.72C1349.36 570.12 1347.46 558.52 1347.46 544.92C1347.46 533.92 1349.16 523.72 1352.56 514.32C1355.96 504.92 1360.76 496.82 1366.96 490.02C1373.36 483.02 1381.06 477.62 1390.06 473.82C1399.26 469.82 1409.56 467.82 1420.96 467.82C1435.36 467.82 1446.86 468.82 1455.46 470.82C1464.26 472.62 1471.46 474.42 1477.06 476.22V617.82C1477.06 641.02 1471.06 657.52 1459.06 667.32C1447.06 677.32 1428.96 682.32 1404.76 682.32C1394.76 682.32 1385.66 681.52 1377.46 679.92C1369.46 678.52 1362.56 676.82 1356.76 674.82L1360.66 657.12C1365.46 659.32 1371.96 661.22 1380.16 662.82C1388.56 664.42 1396.96 665.22 1405.36 665.22C1423.76 665.22 1437.06 661.62 1445.26 654.42C1453.66 647.42 1457.86 635.32 1457.86 618.12V607.92ZM1457.56 489.72C1454.16 488.72 1449.76 487.82 1444.36 487.02C1438.96 486.02 1431.26 485.52 1421.26 485.52C1412.86 485.52 1405.36 487.02 1398.76 490.02C1392.36 492.82 1386.86 496.92 1382.26 502.32C1377.66 507.52 1374.16 513.82 1371.76 521.22C1369.36 528.42 1368.16 536.42 1368.16 545.22C1368.16 555.42 1369.56 564.22 1372.36 571.62C1375.16 578.82 1378.76 584.72 1383.16 589.32C1387.76 593.92 1392.96 597.32 1398.76 599.52C1404.56 601.52 1410.46 602.52 1416.46 602.52C1425.26 602.52 1433.26 601.22 1440.46 598.62C1447.86 596.02 1453.56 593.02 1457.56 589.62V489.72Z" fill="black"/>
<path d="M1548.24 625.92H1528.74V470.82H1548.24V625.92ZM1552.74 424.02C1552.74 428.62 1551.34 432.32 1548.54 435.12C1545.74 437.72 1542.34 439.02 1538.34 439.02C1534.34 439.02 1530.94 437.72 1528.14 435.12C1525.34 432.32 1523.94 428.62 1523.94 424.02C1523.94 419.42 1525.34 415.82 1528.14 413.22C1530.94 410.42 1534.34 409.02 1538.34 409.02C1542.34 409.02 1545.74 410.42 1548.54 413.22C1551.34 415.82 1552.74 419.42 1552.74 424.02Z" fill="black"/>
<path d="M1590.63 548.22C1590.63 534.62 1592.53 522.82 1596.33 512.82C1600.33 502.62 1605.43 494.12 1611.63 487.32C1618.03 480.52 1625.23 475.52 1633.23 472.32C1641.43 468.92 1649.83 467.22 1658.43 467.22C1677.43 467.22 1692.53 473.42 1703.73 485.82C1715.13 498.22 1720.83 517.32 1720.83 543.12C1720.83 544.72 1720.73 546.32 1720.53 547.92C1720.53 549.52 1720.43 551.02 1720.23 552.42H1611.33C1611.93 571.42 1616.63 586.02 1625.43 596.22C1634.23 606.42 1648.23 611.52 1667.43 611.52C1678.03 611.52 1686.43 610.52 1692.63 608.52C1698.83 606.52 1703.33 604.82 1706.13 603.42L1709.73 620.22C1706.93 621.82 1701.63 623.72 1693.83 625.92C1686.23 628.12 1677.23 629.22 1666.83 629.22C1653.23 629.22 1641.63 627.22 1632.03 623.22C1622.43 619.22 1614.53 613.62 1608.33 606.42C1602.13 599.22 1597.63 590.72 1594.83 580.92C1592.03 570.92 1590.63 560.02 1590.63 548.22ZM1700.73 535.92C1700.33 519.72 1696.53 507.12 1689.33 498.12C1682.13 489.12 1671.93 484.62 1658.73 484.62C1651.73 484.62 1645.43 486.02 1639.83 488.82C1634.43 491.62 1629.63 495.42 1625.43 500.22C1621.43 504.82 1618.23 510.22 1615.83 516.42C1613.63 522.62 1612.33 529.12 1611.93 535.92H1700.73Z" fill="black"/>
<path d="M1796.08 612.12C1807.28 612.12 1816.48 610.32 1823.68 606.72C1831.08 602.92 1834.78 596.62 1834.78 587.82C1834.78 583.62 1834.08 580.02 1832.68 577.02C1831.48 574.02 1829.38 571.32 1826.38 568.92C1823.38 566.52 1819.38 564.22 1814.38 562.02C1809.58 559.82 1803.58 557.22 1796.38 554.22C1790.58 551.82 1785.08 549.42 1779.88 547.02C1774.68 544.42 1770.08 541.52 1766.08 538.32C1762.08 534.92 1758.88 530.92 1756.48 526.32C1754.08 521.72 1752.88 516.12 1752.88 509.52C1752.88 496.92 1757.58 486.72 1766.98 478.92C1776.58 471.12 1789.68 467.22 1806.28 467.22C1816.88 467.22 1825.58 468.12 1832.38 469.92C1839.38 471.72 1844.28 473.32 1847.08 474.72L1842.58 492.12C1840.18 490.92 1836.08 489.32 1830.28 487.32C1824.68 485.32 1816.38 484.32 1805.38 484.32C1800.98 484.32 1796.78 484.82 1792.78 485.82C1788.98 486.62 1785.58 488.02 1782.58 490.02C1779.58 491.82 1777.18 494.22 1775.38 497.22C1773.58 500.02 1772.68 503.52 1772.68 507.72C1772.68 511.92 1773.48 515.52 1775.08 518.52C1776.68 521.52 1778.98 524.22 1781.98 526.62C1785.18 528.82 1788.98 530.92 1793.38 532.92C1797.98 534.92 1803.18 537.12 1808.98 539.52C1814.98 541.92 1820.68 544.42 1826.08 547.02C1831.68 549.42 1836.58 552.42 1840.78 556.02C1844.98 559.42 1848.38 563.62 1850.98 568.62C1853.58 573.42 1854.88 579.52 1854.88 586.92C1854.88 600.92 1849.58 611.52 1838.98 618.72C1828.58 625.92 1814.28 629.52 1796.08 629.52C1782.48 629.52 1772.08 628.32 1764.88 625.92C1757.68 623.72 1752.88 622.02 1750.48 620.82L1755.58 603.12C1756.18 603.52 1757.48 604.22 1759.48 605.22C1761.48 606.02 1764.18 607.02 1767.58 608.22C1770.98 609.22 1774.98 610.12 1779.58 610.92C1784.38 611.72 1789.88 612.12 1796.08 612.12Z" fill="black"/>
</svg>
