<svg width="2003" height="692" viewBox="0 0 2003 692" fill="none" xmlns="http://www.w3.org/2000/svg">
<mask id="path-1-outside-1_2_93" maskUnits="userSpaceOnUse" x="0" y="0" width="2003" height="692" fill="black">
<rect fill="white" width="2003" height="692"/>
<path d="M71.62 185.18C71.62 199.46 73.3 212.34 76.66 223.82C80.3 235.3 85.34 245.24 91.78 253.64C98.5 261.76 106.62 268.06 116.14 272.54C125.66 277.02 136.58 279.26 148.9 279.26C160.94 279.26 171.72 277.02 181.24 272.54C191.04 268.06 199.16 261.76 205.6 253.64C212.32 245.24 217.36 235.3 220.72 223.82C224.36 212.34 226.18 199.46 226.18 185.18C226.18 170.9 224.36 158.02 220.72 146.54C217.36 134.78 212.32 124.84 205.6 116.72C199.16 108.32 191.04 101.88 181.24 97.4C171.72 92.92 160.94 90.68 148.9 90.68C136.58 90.68 125.66 93.06 116.14 97.82C106.62 102.3 98.5 108.74 91.78 117.14C85.34 125.26 80.3 135.2 76.66 146.96C73.3 158.44 71.62 171.18 71.62 185.18ZM293.8 185.18C293.8 210.1 290.02 232.08 282.46 251.12C275.18 269.88 265.1 285.7 252.22 298.58C239.34 311.18 223.94 320.7 206.02 327.14C188.38 333.58 169.34 336.8 148.9 336.8C129.02 336.8 110.26 333.58 92.62 327.14C74.98 320.7 59.58 311.18 46.42 298.58C33.26 285.7 22.9 269.88 15.34 251.12C7.78 232.08 4 210.1 4 185.18C4 160.26 7.92 138.42 15.76 119.66C23.6 100.62 34.1 84.66 47.26 71.78C60.7 58.9 76.1 49.24 93.46 42.8C111.1 36.36 129.58 33.14 148.9 33.14C168.78 33.14 187.54 36.36 205.18 42.8C222.82 49.24 238.22 58.9 251.38 71.78C264.54 84.66 274.9 100.62 282.46 119.66C290.02 138.42 293.8 160.26 293.8 185.18Z"/>
<path d="M342.116 54.98L404.696 44.9V110H479.876V162.08H404.696V239.78C404.696 252.94 406.936 263.44 411.416 271.28C416.176 279.12 425.556 283.04 439.556 283.04C446.276 283.04 453.136 282.48 460.136 281.36C467.416 279.96 473.996 278.14 479.876 275.9L488.696 324.62C481.136 327.7 472.736 330.36 463.496 332.6C454.256 334.84 442.916 335.96 429.476 335.96C412.396 335.96 398.256 333.72 387.056 329.24C375.856 324.48 366.896 318.04 360.176 309.92C353.456 301.52 348.696 291.44 345.896 279.68C343.376 267.92 342.116 254.9 342.116 240.62V54.98Z"/>
<path d="M607.054 287.24C613.214 287.24 619.094 287.1 624.694 286.82C630.294 286.54 634.774 286.12 638.134 285.56V238.1C635.614 237.54 631.834 236.98 626.794 236.42C621.754 235.86 617.134 235.58 612.934 235.58C607.054 235.58 601.454 236 596.134 236.84C591.094 237.4 586.614 238.66 582.694 240.62C578.774 242.58 575.694 245.24 573.454 248.6C571.214 251.96 570.094 256.16 570.094 261.2C570.094 271 573.314 277.86 579.754 281.78C586.474 285.42 595.574 287.24 607.054 287.24ZM602.014 104.12C620.494 104.12 635.894 106.22 648.214 110.42C660.534 114.62 670.334 120.64 677.614 128.48C685.174 136.32 690.494 145.84 693.574 157.04C696.654 168.24 698.194 180.7 698.194 194.42V324.62C689.234 326.58 676.774 328.82 660.814 331.34C644.854 334.14 625.534 335.54 602.854 335.54C588.574 335.54 575.554 334.28 563.794 331.76C552.314 329.24 542.374 325.18 533.974 319.58C525.574 313.7 519.134 306.14 514.654 296.9C510.174 287.66 507.934 276.32 507.934 262.88C507.934 250 510.454 239.08 515.494 230.12C520.814 221.16 527.814 214.02 536.494 208.7C545.174 203.38 555.114 199.6 566.314 197.36C577.514 194.84 589.134 193.58 601.174 193.58C609.294 193.58 616.434 194 622.594 194.84C629.034 195.4 634.214 196.24 638.134 197.36V191.48C638.134 180.84 634.914 172.3 628.474 165.86C622.034 159.42 610.834 156.2 594.874 156.2C584.234 156.2 573.734 157.04 563.374 158.72C553.014 160.12 544.054 162.22 536.494 165.02L528.514 114.62C532.154 113.5 536.634 112.38 541.954 111.26C547.554 109.86 553.574 108.74 560.014 107.9C566.454 106.78 573.174 105.94 580.174 105.38C587.454 104.54 594.734 104.12 602.014 104.12Z"/>
<path d="M817.363 189.8C823.523 183.08 829.823 176.08 836.263 168.8C842.983 161.52 849.423 154.38 855.583 147.38C861.743 140.1 867.483 133.24 872.803 126.8C878.403 120.36 883.163 114.76 887.083 110H961.423C946.583 127.08 932.023 143.46 917.743 159.14C903.743 174.54 888.343 190.5 871.543 207.02C879.943 214.58 888.623 223.68 897.583 234.32C906.543 244.68 915.223 255.46 923.623 266.66C932.023 277.86 939.723 289.06 946.723 300.26C953.723 311.46 959.603 321.68 964.363 330.92H892.543C888.063 323.64 882.883 315.66 877.003 306.98C871.403 298.02 865.383 289.2 858.943 280.52C852.503 271.56 845.643 263.02 838.363 254.9C831.363 246.78 824.363 239.92 817.363 234.32V330.92H754.783V15.08L817.363 5V189.8Z"/>
<path d="M1182.48 323.36C1171.84 326.44 1158.12 329.24 1141.32 331.76C1124.52 334.56 1106.88 335.96 1088.4 335.96C1069.64 335.96 1053.96 333.44 1041.36 328.4C1029.04 323.36 1019.24 316.36 1011.96 307.4C1004.68 298.16 999.504 287.24 996.424 274.64C993.344 262.04 991.804 248.18 991.804 233.06V110H1054.38V225.5C1054.38 245.66 1057.04 260.22 1062.36 269.18C1067.68 278.14 1077.62 282.62 1092.18 282.62C1096.66 282.62 1101.42 282.48 1106.46 282.2C1111.5 281.64 1115.98 281.08 1119.9 280.52V110H1182.48V323.36Z"/>
<path d="M1241.23 117.56C1251.87 114.48 1265.59 111.68 1282.39 109.16C1299.19 106.36 1316.83 104.96 1335.31 104.96C1354.07 104.96 1369.61 107.48 1381.93 112.52C1394.53 117.28 1404.47 124.14 1411.75 133.1C1419.03 142.06 1424.21 152.7 1427.29 165.02C1430.37 177.34 1431.91 191.06 1431.91 206.18V330.92H1369.33V213.74C1369.33 193.58 1366.67 179.3 1361.35 170.9C1356.03 162.5 1346.09 158.3 1331.53 158.3C1327.05 158.3 1322.29 158.58 1317.25 159.14C1312.21 159.42 1307.73 159.84 1303.81 160.4V330.92H1241.23V117.56Z"/>
<path d="M1551.13 330.92H1488.55V110H1551.13V330.92ZM1557.01 46.16C1557.01 57.64 1553.23 66.74 1545.67 73.46C1538.39 79.9 1529.71 83.12 1519.63 83.12C1509.55 83.12 1500.73 79.9 1493.17 73.46C1485.89 66.74 1482.25 57.64 1482.25 46.16C1482.25 34.68 1485.89 25.72 1493.17 19.28C1500.73 12.56 1509.55 9.2 1519.63 9.2C1529.71 9.2 1538.39 12.56 1545.67 19.28C1553.23 25.72 1557.01 34.68 1557.01 46.16Z"/>
<path d="M1607.86 54.98L1670.44 44.9V110H1745.62V162.08H1670.44V239.78C1670.44 252.94 1672.68 263.44 1677.16 271.28C1681.92 279.12 1691.3 283.04 1705.3 283.04C1712.02 283.04 1718.88 282.48 1725.88 281.36C1733.16 279.96 1739.74 278.14 1745.62 275.9L1754.44 324.62C1746.88 327.7 1738.48 330.36 1729.24 332.6C1720 334.84 1708.66 335.96 1695.22 335.96C1678.14 335.96 1664 333.72 1652.8 329.24C1641.6 324.48 1632.64 318.04 1625.92 309.92C1619.2 301.52 1614.44 291.44 1611.64 279.68C1609.12 267.92 1607.86 254.9 1607.86 240.62V54.98Z"/>
<path d="M1996.82 110C1984.22 152.56 1971.06 192.46 1957.34 229.7C1943.62 266.94 1928.64 303.06 1912.4 338.06C1906.52 350.66 1900.64 361.3 1894.76 369.98C1888.88 378.94 1882.44 386.22 1875.44 391.82C1868.44 397.7 1860.46 401.9 1851.5 404.42C1842.82 407.22 1832.6 408.62 1820.84 408.62C1811.04 408.62 1801.94 407.64 1793.54 405.68C1785.42 404 1778.7 402.04 1773.38 399.8L1784.3 349.82C1790.74 352.06 1796.48 353.6 1801.52 354.44C1806.56 355.28 1811.88 355.7 1817.48 355.7C1828.68 355.7 1837.22 352.62 1843.1 346.46C1849.26 340.58 1854.44 332.32 1858.64 321.68C1844.36 293.68 1830.08 262.32 1815.8 227.6C1801.52 192.6 1788.08 153.4 1775.48 110H1841.84C1844.64 120.92 1847.86 132.82 1851.5 145.7C1855.42 158.3 1859.48 171.18 1863.68 184.34C1867.88 197.22 1872.08 209.82 1876.28 222.14C1880.76 234.46 1884.96 245.66 1888.88 255.74C1892.52 245.66 1896.3 234.46 1900.22 222.14C1904.14 209.82 1907.92 197.22 1911.56 184.34C1915.48 171.18 1919.12 158.3 1922.48 145.7C1926.12 132.82 1929.34 120.92 1932.14 110H1996.82Z"/>
<path d="M273.164 423.02V440.72H206.564V630.92H186.164V440.72H119.564V423.02H273.164Z"/>
<path d="M281.836 553.22C281.836 539.62 283.736 527.82 287.536 517.82C291.536 507.62 296.636 499.12 302.836 492.32C309.236 485.52 316.436 480.52 324.436 477.32C332.636 473.92 341.036 472.22 349.636 472.22C368.636 472.22 383.736 478.42 394.936 490.82C406.336 503.22 412.036 522.32 412.036 548.12C412.036 549.72 411.936 551.32 411.736 552.92C411.736 554.52 411.636 556.02 411.436 557.42H302.536C303.136 576.42 307.836 591.02 316.636 601.22C325.436 611.42 339.436 616.52 358.636 616.52C369.236 616.52 377.636 615.52 383.836 613.52C390.036 611.52 394.536 609.82 397.336 608.42L400.936 625.22C398.136 626.82 392.836 628.72 385.036 630.92C377.436 633.12 368.436 634.22 358.036 634.22C344.436 634.22 332.836 632.22 323.236 628.22C313.636 624.22 305.736 618.62 299.536 611.42C293.336 604.22 288.836 595.72 286.036 585.92C283.236 575.92 281.836 565.02 281.836 553.22ZM391.936 540.92C391.536 524.72 387.736 512.12 380.536 503.12C373.336 494.12 363.136 489.62 349.936 489.62C342.936 489.62 336.636 491.02 331.036 493.82C325.636 496.62 320.836 500.42 316.636 505.22C312.636 509.82 309.436 515.22 307.036 521.42C304.836 527.62 303.536 534.12 303.136 540.92H391.936Z"/>
<path d="M519.691 634.22C507.691 634.22 497.091 632.32 487.891 628.52C478.691 624.72 470.991 619.32 464.791 612.32C458.791 605.12 454.191 596.62 450.991 586.82C447.791 576.82 446.191 565.82 446.191 553.82C446.191 541.62 447.791 530.52 450.991 520.52C454.391 510.52 459.191 501.92 465.391 494.72C471.591 487.52 479.091 482.02 487.891 478.22C496.691 474.22 506.591 472.22 517.591 472.22C525.991 472.22 533.791 472.92 540.991 474.32C548.391 475.72 554.091 477.52 558.091 479.72L552.991 496.52C548.991 494.52 544.491 492.92 539.491 491.72C534.491 490.52 527.791 489.92 519.391 489.92C502.191 489.92 489.091 495.52 480.091 506.72C471.291 517.72 466.891 533.42 466.891 553.82C466.891 563.02 467.891 571.52 469.891 579.32C471.891 586.92 475.091 593.52 479.491 599.12C484.091 604.52 489.891 608.82 496.891 612.02C504.091 615.02 512.791 616.52 522.991 616.52C531.391 616.52 538.391 615.62 543.991 613.82C549.791 611.82 553.991 610.12 556.591 608.72L560.791 625.52C557.191 627.52 551.491 629.42 543.691 631.22C536.091 633.22 528.091 634.22 519.691 634.22Z"/>
<path d="M593.48 630.92V401.72L612.98 398.12V480.32C619.38 477.92 625.88 476.12 632.48 474.92C639.08 473.52 645.68 472.82 652.28 472.82C664.28 472.82 674.28 474.52 682.28 477.92C690.28 481.32 696.68 486.22 701.48 492.62C706.28 498.82 709.58 506.32 711.38 515.12C713.38 523.92 714.38 533.62 714.38 544.22V630.92H694.88V550.52C694.88 539.52 694.08 530.22 692.48 522.62C691.08 515.02 688.58 508.82 684.98 504.02C681.58 499.22 676.98 495.82 671.18 493.82C665.38 491.62 658.08 490.52 649.28 490.52C645.88 490.52 642.18 490.82 638.18 491.42C634.38 492.02 630.78 492.72 627.38 493.52C623.98 494.12 620.88 494.82 618.08 495.62C615.48 496.42 613.78 497.02 612.98 497.42V630.92H593.48Z"/>
<path d="M764.28 481.22C770.08 479.62 777.88 477.82 787.68 475.82C797.48 473.82 809.48 472.82 823.68 472.82C835.48 472.82 845.281 474.52 853.081 477.92C861.081 481.32 867.38 486.22 871.98 492.62C876.78 498.82 880.18 506.32 882.18 515.12C884.18 523.92 885.18 533.62 885.18 544.22V630.92H865.68V550.52C865.68 539.52 864.88 530.22 863.28 522.62C861.88 515.02 859.38 508.82 855.78 504.02C852.38 499.22 847.78 495.82 841.98 493.82C836.38 491.62 829.28 490.52 820.68 490.52C811.48 490.52 803.48 491.02 796.68 492.02C790.08 493.02 785.78 493.92 783.78 494.72V630.92H764.28V481.22Z"/>
<path d="M1067.38 553.52C1067.38 565.72 1065.58 576.82 1061.98 586.82C1058.58 596.82 1053.68 605.32 1047.28 612.32C1041.08 619.32 1033.68 624.82 1025.08 628.82C1016.48 632.62 1006.98 634.52 996.581 634.52C986.181 634.52 976.681 632.62 968.081 628.82C959.481 624.82 951.981 619.32 945.581 612.32C939.381 605.32 934.481 596.82 930.881 586.82C927.481 576.82 925.781 565.72 925.781 553.52C925.781 541.32 927.481 530.22 930.881 520.22C934.481 510.22 939.381 501.72 945.581 494.72C951.981 487.52 959.481 482.02 968.081 478.22C976.681 474.22 986.181 472.22 996.581 472.22C1006.98 472.22 1016.48 474.22 1025.08 478.22C1033.68 482.02 1041.08 487.52 1047.28 494.72C1053.68 501.72 1058.58 510.22 1061.98 520.22C1065.58 530.22 1067.38 541.32 1067.38 553.52ZM1046.68 553.52C1046.68 534.12 1042.18 518.72 1033.18 507.32C1024.18 495.72 1011.98 489.92 996.581 489.92C981.181 489.92 968.981 495.72 959.981 507.32C950.981 518.72 946.481 534.12 946.481 553.52C946.481 572.92 950.981 588.32 959.981 599.72C968.981 611.12 981.181 616.82 996.581 616.82C1011.98 616.82 1024.18 611.12 1033.18 599.72C1042.18 588.32 1046.68 572.92 1046.68 553.52Z"/>
<path d="M1148.99 633.62C1142.39 633.42 1136.59 632.52 1131.59 630.92C1126.79 629.52 1122.69 627.32 1119.29 624.32C1116.09 621.12 1113.59 617.12 1111.79 612.32C1110.19 607.32 1109.39 601.12 1109.39 593.72V401.72L1128.89 398.12V593.12C1128.89 597.92 1129.29 601.82 1130.09 604.82C1131.09 607.62 1132.49 609.92 1134.29 611.72C1136.09 613.32 1138.39 614.52 1141.19 615.32C1144.19 616.12 1147.69 616.82 1151.69 617.42L1148.99 633.62Z"/>
<path d="M1318.46 553.52C1318.46 565.72 1316.66 576.82 1313.06 586.82C1309.66 596.82 1304.76 605.32 1298.36 612.32C1292.16 619.32 1284.76 624.82 1276.16 628.82C1267.56 632.62 1258.06 634.52 1247.66 634.52C1237.26 634.52 1227.76 632.62 1219.16 628.82C1210.56 624.82 1203.06 619.32 1196.66 612.32C1190.46 605.32 1185.56 596.82 1181.96 586.82C1178.56 576.82 1176.86 565.72 1176.86 553.52C1176.86 541.32 1178.56 530.22 1181.96 520.22C1185.56 510.22 1190.46 501.72 1196.66 494.72C1203.06 487.52 1210.56 482.02 1219.16 478.22C1227.76 474.22 1237.26 472.22 1247.66 472.22C1258.06 472.22 1267.56 474.22 1276.16 478.22C1284.76 482.02 1292.16 487.52 1298.36 494.72C1304.76 501.72 1309.66 510.22 1313.06 520.22C1316.66 530.22 1318.46 541.32 1318.46 553.52ZM1297.76 553.52C1297.76 534.12 1293.26 518.72 1284.26 507.32C1275.26 495.72 1263.06 489.92 1247.66 489.92C1232.26 489.92 1220.06 495.72 1211.06 507.32C1202.06 518.72 1197.56 534.12 1197.56 553.52C1197.56 572.92 1202.06 588.32 1211.06 599.72C1220.06 611.12 1232.26 616.82 1247.66 616.82C1263.06 616.82 1275.26 611.12 1284.26 599.72C1293.26 588.32 1297.76 572.92 1297.76 553.52Z"/>
<path d="M1461.86 612.92C1460.66 613.92 1458.86 615.12 1456.46 616.52C1454.06 617.72 1451.06 619.02 1447.46 620.42C1444.06 621.82 1440.06 623.02 1435.46 624.02C1431.06 624.82 1426.06 625.22 1420.46 625.22C1411.46 625.22 1402.76 623.82 1394.36 621.02C1385.96 618.22 1378.56 613.82 1372.16 607.82C1365.96 601.82 1360.96 594.12 1357.16 584.72C1353.36 575.12 1351.46 563.52 1351.46 549.92C1351.46 538.92 1353.16 528.72 1356.56 519.32C1359.96 509.92 1364.76 501.82 1370.96 495.02C1377.36 488.02 1385.06 482.62 1394.06 478.82C1403.26 474.82 1413.56 472.82 1424.96 472.82C1439.36 472.82 1450.86 473.82 1459.46 475.82C1468.26 477.62 1475.46 479.42 1481.06 481.22V622.82C1481.06 646.02 1475.06 662.52 1463.06 672.32C1451.06 682.32 1432.96 687.32 1408.76 687.32C1398.76 687.32 1389.66 686.52 1381.46 684.92C1373.46 683.52 1366.56 681.82 1360.76 679.82L1364.66 662.12C1369.46 664.32 1375.96 666.22 1384.16 667.82C1392.56 669.42 1400.96 670.22 1409.36 670.22C1427.76 670.22 1441.06 666.62 1449.26 659.42C1457.66 652.42 1461.86 640.32 1461.86 623.12V612.92ZM1461.56 494.72C1458.16 493.72 1453.76 492.82 1448.36 492.02C1442.96 491.02 1435.26 490.52 1425.26 490.52C1416.86 490.52 1409.36 492.02 1402.76 495.02C1396.36 497.82 1390.86 501.92 1386.26 507.32C1381.66 512.52 1378.16 518.82 1375.76 526.22C1373.36 533.42 1372.16 541.42 1372.16 550.22C1372.16 560.42 1373.56 569.22 1376.36 576.62C1379.16 583.82 1382.76 589.72 1387.16 594.32C1391.76 598.92 1396.96 602.32 1402.76 604.52C1408.56 606.52 1414.46 607.52 1420.46 607.52C1429.26 607.52 1437.26 606.22 1444.46 603.62C1451.86 601.02 1457.56 598.02 1461.56 594.62V494.72Z"/>
<path d="M1552.24 630.92H1532.74V475.82H1552.24V630.92ZM1556.74 429.02C1556.74 433.62 1555.34 437.32 1552.54 440.12C1549.74 442.72 1546.34 444.02 1542.34 444.02C1538.34 444.02 1534.94 442.72 1532.14 440.12C1529.34 437.32 1527.94 433.62 1527.94 429.02C1527.94 424.42 1529.34 420.82 1532.14 418.22C1534.94 415.42 1538.34 414.02 1542.34 414.02C1546.34 414.02 1549.74 415.42 1552.54 418.22C1555.34 420.82 1556.74 424.42 1556.74 429.02Z"/>
<path d="M1594.63 553.22C1594.63 539.62 1596.53 527.82 1600.33 517.82C1604.33 507.62 1609.43 499.12 1615.63 492.32C1622.03 485.52 1629.23 480.52 1637.23 477.32C1645.43 473.92 1653.83 472.22 1662.43 472.22C1681.43 472.22 1696.53 478.42 1707.73 490.82C1719.13 503.22 1724.83 522.32 1724.83 548.12C1724.83 549.72 1724.73 551.32 1724.53 552.92C1724.53 554.52 1724.43 556.02 1724.23 557.42H1615.33C1615.93 576.42 1620.63 591.02 1629.43 601.22C1638.23 611.42 1652.23 616.52 1671.43 616.52C1682.03 616.52 1690.43 615.52 1696.63 613.52C1702.83 611.52 1707.33 609.82 1710.13 608.42L1713.73 625.22C1710.93 626.82 1705.63 628.72 1697.83 630.92C1690.23 633.12 1681.23 634.22 1670.83 634.22C1657.23 634.22 1645.63 632.22 1636.03 628.22C1626.43 624.22 1618.53 618.62 1612.33 611.42C1606.13 604.22 1601.63 595.72 1598.83 585.92C1596.03 575.92 1594.63 565.02 1594.63 553.22ZM1704.73 540.92C1704.33 524.72 1700.53 512.12 1693.33 503.12C1686.13 494.12 1675.93 489.62 1662.73 489.62C1655.73 489.62 1649.43 491.02 1643.83 493.82C1638.43 496.62 1633.63 500.42 1629.43 505.22C1625.43 509.82 1622.23 515.22 1619.83 521.42C1617.63 527.62 1616.33 534.12 1615.93 540.92H1704.73Z"/>
<path d="M1800.08 617.12C1811.28 617.12 1820.48 615.32 1827.68 611.72C1835.08 607.92 1838.78 601.62 1838.78 592.82C1838.78 588.62 1838.08 585.02 1836.68 582.02C1835.48 579.02 1833.38 576.32 1830.38 573.92C1827.38 571.52 1823.38 569.22 1818.38 567.02C1813.58 564.82 1807.58 562.22 1800.38 559.22C1794.58 556.82 1789.08 554.42 1783.88 552.02C1778.68 549.42 1774.08 546.52 1770.08 543.32C1766.08 539.92 1762.88 535.92 1760.48 531.32C1758.08 526.72 1756.88 521.12 1756.88 514.52C1756.88 501.92 1761.58 491.72 1770.98 483.92C1780.58 476.12 1793.68 472.22 1810.28 472.22C1820.88 472.22 1829.58 473.12 1836.38 474.92C1843.38 476.72 1848.28 478.32 1851.08 479.72L1846.58 497.12C1844.18 495.92 1840.08 494.32 1834.28 492.32C1828.68 490.32 1820.38 489.32 1809.38 489.32C1804.98 489.32 1800.78 489.82 1796.78 490.82C1792.98 491.62 1789.58 493.02 1786.58 495.02C1783.58 496.82 1781.18 499.22 1779.38 502.22C1777.58 505.02 1776.68 508.52 1776.68 512.72C1776.68 516.92 1777.48 520.52 1779.08 523.52C1780.68 526.52 1782.98 529.22 1785.98 531.62C1789.18 533.82 1792.98 535.92 1797.38 537.92C1801.98 539.92 1807.18 542.12 1812.98 544.52C1818.98 546.92 1824.68 549.42 1830.08 552.02C1835.68 554.42 1840.58 557.42 1844.78 561.02C1848.98 564.42 1852.38 568.62 1854.98 573.62C1857.58 578.42 1858.88 584.52 1858.88 591.92C1858.88 605.92 1853.58 616.52 1842.98 623.72C1832.58 630.92 1818.28 634.52 1800.08 634.52C1786.48 634.52 1776.08 633.32 1768.88 630.92C1761.68 628.72 1756.88 627.02 1754.48 625.82L1759.58 608.12C1760.18 608.52 1761.48 609.22 1763.48 610.22C1765.48 611.02 1768.18 612.02 1771.58 613.22C1774.98 614.22 1778.98 615.12 1783.58 615.92C1788.38 616.72 1793.88 617.12 1800.08 617.12Z"/>
</mask>
<path d="M71.62 185.18C71.62 199.46 73.3 212.34 76.66 223.82C80.3 235.3 85.34 245.24 91.78 253.64C98.5 261.76 106.62 268.06 116.14 272.54C125.66 277.02 136.58 279.26 148.9 279.26C160.94 279.26 171.72 277.02 181.24 272.54C191.04 268.06 199.16 261.76 205.6 253.64C212.32 245.24 217.36 235.3 220.72 223.82C224.36 212.34 226.18 199.46 226.18 185.18C226.18 170.9 224.36 158.02 220.72 146.54C217.36 134.78 212.32 124.84 205.6 116.72C199.16 108.32 191.04 101.88 181.24 97.4C171.72 92.92 160.94 90.68 148.9 90.68C136.58 90.68 125.66 93.06 116.14 97.82C106.62 102.3 98.5 108.74 91.78 117.14C85.34 125.26 80.3 135.2 76.66 146.96C73.3 158.44 71.62 171.18 71.62 185.18ZM293.8 185.18C293.8 210.1 290.02 232.08 282.46 251.12C275.18 269.88 265.1 285.7 252.22 298.58C239.34 311.18 223.94 320.7 206.02 327.14C188.38 333.58 169.34 336.8 148.9 336.8C129.02 336.8 110.26 333.58 92.62 327.14C74.98 320.7 59.58 311.18 46.42 298.58C33.26 285.7 22.9 269.88 15.34 251.12C7.78 232.08 4 210.1 4 185.18C4 160.26 7.92 138.42 15.76 119.66C23.6 100.62 34.1 84.66 47.26 71.78C60.7 58.9 76.1 49.24 93.46 42.8C111.1 36.36 129.58 33.14 148.9 33.14C168.78 33.14 187.54 36.36 205.18 42.8C222.82 49.24 238.22 58.9 251.38 71.78C264.54 84.66 274.9 100.62 282.46 119.66C290.02 138.42 293.8 160.26 293.8 185.18Z" fill="white"/>
<path d="M342.116 54.98L404.696 44.9V110H479.876V162.08H404.696V239.78C404.696 252.94 406.936 263.44 411.416 271.28C416.176 279.12 425.556 283.04 439.556 283.04C446.276 283.04 453.136 282.48 460.136 281.36C467.416 279.96 473.996 278.14 479.876 275.9L488.696 324.62C481.136 327.7 472.736 330.36 463.496 332.6C454.256 334.84 442.916 335.96 429.476 335.96C412.396 335.96 398.256 333.72 387.056 329.24C375.856 324.48 366.896 318.04 360.176 309.92C353.456 301.52 348.696 291.44 345.896 279.68C343.376 267.92 342.116 254.9 342.116 240.62V54.98Z" fill="white"/>
<path d="M607.054 287.24C613.214 287.24 619.094 287.1 624.694 286.82C630.294 286.54 634.774 286.12 638.134 285.56V238.1C635.614 237.54 631.834 236.98 626.794 236.42C621.754 235.86 617.134 235.58 612.934 235.58C607.054 235.58 601.454 236 596.134 236.84C591.094 237.4 586.614 238.66 582.694 240.62C578.774 242.58 575.694 245.24 573.454 248.6C571.214 251.96 570.094 256.16 570.094 261.2C570.094 271 573.314 277.86 579.754 281.78C586.474 285.42 595.574 287.24 607.054 287.24ZM602.014 104.12C620.494 104.12 635.894 106.22 648.214 110.42C660.534 114.62 670.334 120.64 677.614 128.48C685.174 136.32 690.494 145.84 693.574 157.04C696.654 168.24 698.194 180.7 698.194 194.42V324.62C689.234 326.58 676.774 328.82 660.814 331.34C644.854 334.14 625.534 335.54 602.854 335.54C588.574 335.54 575.554 334.28 563.794 331.76C552.314 329.24 542.374 325.18 533.974 319.58C525.574 313.7 519.134 306.14 514.654 296.9C510.174 287.66 507.934 276.32 507.934 262.88C507.934 250 510.454 239.08 515.494 230.12C520.814 221.16 527.814 214.02 536.494 208.7C545.174 203.38 555.114 199.6 566.314 197.36C577.514 194.84 589.134 193.58 601.174 193.58C609.294 193.58 616.434 194 622.594 194.84C629.034 195.4 634.214 196.24 638.134 197.36V191.48C638.134 180.84 634.914 172.3 628.474 165.86C622.034 159.42 610.834 156.2 594.874 156.2C584.234 156.2 573.734 157.04 563.374 158.72C553.014 160.12 544.054 162.22 536.494 165.02L528.514 114.62C532.154 113.5 536.634 112.38 541.954 111.26C547.554 109.86 553.574 108.74 560.014 107.9C566.454 106.78 573.174 105.94 580.174 105.38C587.454 104.54 594.734 104.12 602.014 104.12Z" fill="white"/>
<path d="M817.363 189.8C823.523 183.08 829.823 176.08 836.263 168.8C842.983 161.52 849.423 154.38 855.583 147.38C861.743 140.1 867.483 133.24 872.803 126.8C878.403 120.36 883.163 114.76 887.083 110H961.423C946.583 127.08 932.023 143.46 917.743 159.14C903.743 174.54 888.343 190.5 871.543 207.02C879.943 214.58 888.623 223.68 897.583 234.32C906.543 244.68 915.223 255.46 923.623 266.66C932.023 277.86 939.723 289.06 946.723 300.26C953.723 311.46 959.603 321.68 964.363 330.92H892.543C888.063 323.64 882.883 315.66 877.003 306.98C871.403 298.02 865.383 289.2 858.943 280.52C852.503 271.56 845.643 263.02 838.363 254.9C831.363 246.78 824.363 239.92 817.363 234.32V330.92H754.783V15.08L817.363 5V189.8Z" fill="white"/>
<path d="M1182.48 323.36C1171.84 326.44 1158.12 329.24 1141.32 331.76C1124.52 334.56 1106.88 335.96 1088.4 335.96C1069.64 335.96 1053.96 333.44 1041.36 328.4C1029.04 323.36 1019.24 316.36 1011.96 307.4C1004.68 298.16 999.504 287.24 996.424 274.64C993.344 262.04 991.804 248.18 991.804 233.06V110H1054.38V225.5C1054.38 245.66 1057.04 260.22 1062.36 269.18C1067.68 278.14 1077.62 282.62 1092.18 282.62C1096.66 282.62 1101.42 282.48 1106.46 282.2C1111.5 281.64 1115.98 281.08 1119.9 280.52V110H1182.48V323.36Z" fill="white"/>
<path d="M1241.23 117.56C1251.87 114.48 1265.59 111.68 1282.39 109.16C1299.19 106.36 1316.83 104.96 1335.31 104.96C1354.07 104.96 1369.61 107.48 1381.93 112.52C1394.53 117.28 1404.47 124.14 1411.75 133.1C1419.03 142.06 1424.21 152.7 1427.29 165.02C1430.37 177.34 1431.91 191.06 1431.91 206.18V330.92H1369.33V213.74C1369.33 193.58 1366.67 179.3 1361.35 170.9C1356.03 162.5 1346.09 158.3 1331.53 158.3C1327.05 158.3 1322.29 158.58 1317.25 159.14C1312.21 159.42 1307.73 159.84 1303.81 160.4V330.92H1241.23V117.56Z" fill="white"/>
<path d="M1551.13 330.92H1488.55V110H1551.13V330.92ZM1557.01 46.16C1557.01 57.64 1553.23 66.74 1545.67 73.46C1538.39 79.9 1529.71 83.12 1519.63 83.12C1509.55 83.12 1500.73 79.9 1493.17 73.46C1485.89 66.74 1482.25 57.64 1482.25 46.16C1482.25 34.68 1485.89 25.72 1493.17 19.28C1500.73 12.56 1509.55 9.2 1519.63 9.2C1529.71 9.2 1538.39 12.56 1545.67 19.28C1553.23 25.72 1557.01 34.68 1557.01 46.16Z" fill="white"/>
<path d="M1607.86 54.98L1670.44 44.9V110H1745.62V162.08H1670.44V239.78C1670.44 252.94 1672.68 263.44 1677.16 271.28C1681.92 279.12 1691.3 283.04 1705.3 283.04C1712.02 283.04 1718.88 282.48 1725.88 281.36C1733.16 279.96 1739.74 278.14 1745.62 275.9L1754.44 324.62C1746.88 327.7 1738.48 330.36 1729.24 332.6C1720 334.84 1708.66 335.96 1695.22 335.96C1678.14 335.96 1664 333.72 1652.8 329.24C1641.6 324.48 1632.64 318.04 1625.92 309.92C1619.2 301.52 1614.44 291.44 1611.64 279.68C1609.12 267.92 1607.86 254.9 1607.86 240.62V54.98Z" fill="white"/>
<path d="M1996.82 110C1984.22 152.56 1971.06 192.46 1957.34 229.7C1943.62 266.94 1928.64 303.06 1912.4 338.06C1906.52 350.66 1900.64 361.3 1894.76 369.98C1888.88 378.94 1882.44 386.22 1875.44 391.82C1868.44 397.7 1860.46 401.9 1851.5 404.42C1842.82 407.22 1832.6 408.62 1820.84 408.62C1811.04 408.62 1801.94 407.64 1793.54 405.68C1785.42 404 1778.7 402.04 1773.38 399.8L1784.3 349.82C1790.74 352.06 1796.48 353.6 1801.52 354.44C1806.56 355.28 1811.88 355.7 1817.48 355.7C1828.68 355.7 1837.22 352.62 1843.1 346.46C1849.26 340.58 1854.44 332.32 1858.64 321.68C1844.36 293.68 1830.08 262.32 1815.8 227.6C1801.52 192.6 1788.08 153.4 1775.48 110H1841.84C1844.64 120.92 1847.86 132.82 1851.5 145.7C1855.42 158.3 1859.48 171.18 1863.68 184.34C1867.88 197.22 1872.08 209.82 1876.28 222.14C1880.76 234.46 1884.96 245.66 1888.88 255.74C1892.52 245.66 1896.3 234.46 1900.22 222.14C1904.14 209.82 1907.92 197.22 1911.56 184.34C1915.48 171.18 1919.12 158.3 1922.48 145.7C1926.12 132.82 1929.34 120.92 1932.14 110H1996.82Z" fill="white"/>
<path d="M273.164 423.02V440.72H206.564V630.92H186.164V440.72H119.564V423.02H273.164Z" fill="white"/>
<path d="M281.836 553.22C281.836 539.62 283.736 527.82 287.536 517.82C291.536 507.62 296.636 499.12 302.836 492.32C309.236 485.52 316.436 480.52 324.436 477.32C332.636 473.92 341.036 472.22 349.636 472.22C368.636 472.22 383.736 478.42 394.936 490.82C406.336 503.22 412.036 522.32 412.036 548.12C412.036 549.72 411.936 551.32 411.736 552.92C411.736 554.52 411.636 556.02 411.436 557.42H302.536C303.136 576.42 307.836 591.02 316.636 601.22C325.436 611.42 339.436 616.52 358.636 616.52C369.236 616.52 377.636 615.52 383.836 613.52C390.036 611.52 394.536 609.82 397.336 608.42L400.936 625.22C398.136 626.82 392.836 628.72 385.036 630.92C377.436 633.12 368.436 634.22 358.036 634.22C344.436 634.22 332.836 632.22 323.236 628.22C313.636 624.22 305.736 618.62 299.536 611.42C293.336 604.22 288.836 595.72 286.036 585.92C283.236 575.92 281.836 565.02 281.836 553.22ZM391.936 540.92C391.536 524.72 387.736 512.12 380.536 503.12C373.336 494.12 363.136 489.62 349.936 489.62C342.936 489.62 336.636 491.02 331.036 493.82C325.636 496.62 320.836 500.42 316.636 505.22C312.636 509.82 309.436 515.22 307.036 521.42C304.836 527.62 303.536 534.12 303.136 540.92H391.936Z" fill="white"/>
<path d="M519.691 634.22C507.691 634.22 497.091 632.32 487.891 628.52C478.691 624.72 470.991 619.32 464.791 612.32C458.791 605.12 454.191 596.62 450.991 586.82C447.791 576.82 446.191 565.82 446.191 553.82C446.191 541.62 447.791 530.52 450.991 520.52C454.391 510.52 459.191 501.92 465.391 494.72C471.591 487.52 479.091 482.02 487.891 478.22C496.691 474.22 506.591 472.22 517.591 472.22C525.991 472.22 533.791 472.92 540.991 474.32C548.391 475.72 554.091 477.52 558.091 479.72L552.991 496.52C548.991 494.52 544.491 492.92 539.491 491.72C534.491 490.52 527.791 489.92 519.391 489.92C502.191 489.92 489.091 495.52 480.091 506.72C471.291 517.72 466.891 533.42 466.891 553.82C466.891 563.02 467.891 571.52 469.891 579.32C471.891 586.92 475.091 593.52 479.491 599.12C484.091 604.52 489.891 608.82 496.891 612.02C504.091 615.02 512.791 616.52 522.991 616.52C531.391 616.52 538.391 615.62 543.991 613.82C549.791 611.82 553.991 610.12 556.591 608.72L560.791 625.52C557.191 627.52 551.491 629.42 543.691 631.22C536.091 633.22 528.091 634.22 519.691 634.22Z" fill="white"/>
<path d="M593.48 630.92V401.72L612.98 398.12V480.32C619.38 477.92 625.88 476.12 632.48 474.92C639.08 473.52 645.68 472.82 652.28 472.82C664.28 472.82 674.28 474.52 682.28 477.92C690.28 481.32 696.68 486.22 701.48 492.62C706.28 498.82 709.58 506.32 711.38 515.12C713.38 523.92 714.38 533.62 714.38 544.22V630.92H694.88V550.52C694.88 539.52 694.08 530.22 692.48 522.62C691.08 515.02 688.58 508.82 684.98 504.02C681.58 499.22 676.98 495.82 671.18 493.82C665.38 491.62 658.08 490.52 649.28 490.52C645.88 490.52 642.18 490.82 638.18 491.42C634.38 492.02 630.78 492.72 627.38 493.52C623.98 494.12 620.88 494.82 618.08 495.62C615.48 496.42 613.78 497.02 612.98 497.42V630.92H593.48Z" fill="white"/>
<path d="M764.28 481.22C770.08 479.62 777.88 477.82 787.68 475.82C797.48 473.82 809.48 472.82 823.68 472.82C835.48 472.82 845.281 474.52 853.081 477.92C861.081 481.32 867.38 486.22 871.98 492.62C876.78 498.82 880.18 506.32 882.18 515.12C884.18 523.92 885.18 533.62 885.18 544.22V630.92H865.68V550.52C865.68 539.52 864.88 530.22 863.28 522.62C861.88 515.02 859.38 508.82 855.78 504.02C852.38 499.22 847.78 495.82 841.98 493.82C836.38 491.62 829.28 490.52 820.68 490.52C811.48 490.52 803.48 491.02 796.68 492.02C790.08 493.02 785.78 493.92 783.78 494.72V630.92H764.28V481.22Z" fill="white"/>
<path d="M1067.38 553.52C1067.38 565.72 1065.58 576.82 1061.98 586.82C1058.58 596.82 1053.68 605.32 1047.28 612.32C1041.08 619.32 1033.68 624.82 1025.08 628.82C1016.48 632.62 1006.98 634.52 996.581 634.52C986.181 634.52 976.681 632.62 968.081 628.82C959.481 624.82 951.981 619.32 945.581 612.32C939.381 605.32 934.481 596.82 930.881 586.82C927.481 576.82 925.781 565.72 925.781 553.52C925.781 541.32 927.481 530.22 930.881 520.22C934.481 510.22 939.381 501.72 945.581 494.72C951.981 487.52 959.481 482.02 968.081 478.22C976.681 474.22 986.181 472.22 996.581 472.22C1006.98 472.22 1016.48 474.22 1025.08 478.22C1033.68 482.02 1041.08 487.52 1047.28 494.72C1053.68 501.72 1058.58 510.22 1061.98 520.22C1065.58 530.22 1067.38 541.32 1067.38 553.52ZM1046.68 553.52C1046.68 534.12 1042.18 518.72 1033.18 507.32C1024.18 495.72 1011.98 489.92 996.581 489.92C981.181 489.92 968.981 495.72 959.981 507.32C950.981 518.72 946.481 534.12 946.481 553.52C946.481 572.92 950.981 588.32 959.981 599.72C968.981 611.12 981.181 616.82 996.581 616.82C1011.98 616.82 1024.18 611.12 1033.18 599.72C1042.18 588.32 1046.68 572.92 1046.68 553.52Z" fill="white"/>
<path d="M1148.99 633.62C1142.39 633.42 1136.59 632.52 1131.59 630.92C1126.79 629.52 1122.69 627.32 1119.29 624.32C1116.09 621.12 1113.59 617.12 1111.79 612.32C1110.19 607.32 1109.39 601.12 1109.39 593.72V401.72L1128.89 398.12V593.12C1128.89 597.92 1129.29 601.82 1130.09 604.82C1131.09 607.62 1132.49 609.92 1134.29 611.72C1136.09 613.32 1138.39 614.52 1141.19 615.32C1144.19 616.12 1147.69 616.82 1151.69 617.42L1148.99 633.62Z" fill="white"/>
<path d="M1318.46 553.52C1318.46 565.72 1316.66 576.82 1313.06 586.82C1309.66 596.82 1304.76 605.32 1298.36 612.32C1292.16 619.32 1284.76 624.82 1276.16 628.82C1267.56 632.62 1258.06 634.52 1247.66 634.52C1237.26 634.52 1227.76 632.62 1219.16 628.82C1210.56 624.82 1203.06 619.32 1196.66 612.32C1190.46 605.32 1185.56 596.82 1181.96 586.82C1178.56 576.82 1176.86 565.72 1176.86 553.52C1176.86 541.32 1178.56 530.22 1181.96 520.22C1185.56 510.22 1190.46 501.72 1196.66 494.72C1203.06 487.52 1210.56 482.02 1219.16 478.22C1227.76 474.22 1237.26 472.22 1247.66 472.22C1258.06 472.22 1267.56 474.22 1276.16 478.22C1284.76 482.02 1292.16 487.52 1298.36 494.72C1304.76 501.72 1309.66 510.22 1313.06 520.22C1316.66 530.22 1318.46 541.32 1318.46 553.52ZM1297.76 553.52C1297.76 534.12 1293.26 518.72 1284.26 507.32C1275.26 495.72 1263.06 489.92 1247.66 489.92C1232.26 489.92 1220.06 495.72 1211.06 507.32C1202.06 518.72 1197.56 534.12 1197.56 553.52C1197.56 572.92 1202.06 588.32 1211.06 599.72C1220.06 611.12 1232.26 616.82 1247.66 616.82C1263.06 616.82 1275.26 611.12 1284.26 599.72C1293.26 588.32 1297.76 572.92 1297.76 553.52Z" fill="white"/>
<path d="M1461.86 612.92C1460.66 613.92 1458.86 615.12 1456.46 616.52C1454.06 617.72 1451.06 619.02 1447.46 620.42C1444.06 621.82 1440.06 623.02 1435.46 624.02C1431.06 624.82 1426.06 625.22 1420.46 625.22C1411.46 625.22 1402.76 623.82 1394.36 621.02C1385.96 618.22 1378.56 613.82 1372.16 607.82C1365.96 601.82 1360.96 594.12 1357.16 584.72C1353.36 575.12 1351.46 563.52 1351.46 549.92C1351.46 538.92 1353.16 528.72 1356.56 519.32C1359.96 509.92 1364.76 501.82 1370.96 495.02C1377.36 488.02 1385.06 482.62 1394.06 478.82C1403.26 474.82 1413.56 472.82 1424.96 472.82C1439.36 472.82 1450.86 473.82 1459.46 475.82C1468.26 477.62 1475.46 479.42 1481.06 481.22V622.82C1481.06 646.02 1475.06 662.52 1463.06 672.32C1451.06 682.32 1432.96 687.32 1408.76 687.32C1398.76 687.32 1389.66 686.52 1381.46 684.92C1373.46 683.52 1366.56 681.82 1360.76 679.82L1364.66 662.12C1369.46 664.32 1375.96 666.22 1384.16 667.82C1392.56 669.42 1400.96 670.22 1409.36 670.22C1427.76 670.22 1441.06 666.62 1449.26 659.42C1457.66 652.42 1461.86 640.32 1461.86 623.12V612.92ZM1461.56 494.72C1458.16 493.72 1453.76 492.82 1448.36 492.02C1442.96 491.02 1435.26 490.52 1425.26 490.52C1416.86 490.52 1409.36 492.02 1402.76 495.02C1396.36 497.82 1390.86 501.92 1386.26 507.32C1381.66 512.52 1378.16 518.82 1375.76 526.22C1373.36 533.42 1372.16 541.42 1372.16 550.22C1372.16 560.42 1373.56 569.22 1376.36 576.62C1379.16 583.82 1382.76 589.72 1387.16 594.32C1391.76 598.92 1396.96 602.32 1402.76 604.52C1408.56 606.52 1414.46 607.52 1420.46 607.52C1429.26 607.52 1437.26 606.22 1444.46 603.62C1451.86 601.02 1457.56 598.02 1461.56 594.62V494.72Z" fill="white"/>
<path d="M1552.24 630.92H1532.74V475.82H1552.24V630.92ZM1556.74 429.02C1556.74 433.62 1555.34 437.32 1552.54 440.12C1549.74 442.72 1546.34 444.02 1542.34 444.02C1538.34 444.02 1534.94 442.72 1532.14 440.12C1529.34 437.32 1527.94 433.62 1527.94 429.02C1527.94 424.42 1529.34 420.82 1532.14 418.22C1534.94 415.42 1538.34 414.02 1542.34 414.02C1546.34 414.02 1549.74 415.42 1552.54 418.22C1555.34 420.82 1556.74 424.42 1556.74 429.02Z" fill="white"/>
<path d="M1594.63 553.22C1594.63 539.62 1596.53 527.82 1600.33 517.82C1604.33 507.62 1609.43 499.12 1615.63 492.32C1622.03 485.52 1629.23 480.52 1637.23 477.32C1645.43 473.92 1653.83 472.22 1662.43 472.22C1681.43 472.22 1696.53 478.42 1707.73 490.82C1719.13 503.22 1724.83 522.32 1724.83 548.12C1724.83 549.72 1724.73 551.32 1724.53 552.92C1724.53 554.52 1724.43 556.02 1724.23 557.42H1615.33C1615.93 576.42 1620.63 591.02 1629.43 601.22C1638.23 611.42 1652.23 616.52 1671.43 616.52C1682.03 616.52 1690.43 615.52 1696.63 613.52C1702.83 611.52 1707.33 609.82 1710.13 608.42L1713.73 625.22C1710.93 626.82 1705.63 628.72 1697.83 630.92C1690.23 633.12 1681.23 634.22 1670.83 634.22C1657.23 634.22 1645.63 632.22 1636.03 628.22C1626.43 624.22 1618.53 618.62 1612.33 611.42C1606.13 604.22 1601.63 595.72 1598.83 585.92C1596.03 575.92 1594.63 565.02 1594.63 553.22ZM1704.73 540.92C1704.33 524.72 1700.53 512.12 1693.33 503.12C1686.13 494.12 1675.93 489.62 1662.73 489.62C1655.73 489.62 1649.43 491.02 1643.83 493.82C1638.43 496.62 1633.63 500.42 1629.43 505.22C1625.43 509.82 1622.23 515.22 1619.83 521.42C1617.63 527.62 1616.33 534.12 1615.93 540.92H1704.73Z" fill="white"/>
<path d="M1800.08 617.12C1811.28 617.12 1820.48 615.32 1827.68 611.72C1835.08 607.92 1838.78 601.62 1838.78 592.82C1838.78 588.62 1838.08 585.02 1836.68 582.02C1835.48 579.02 1833.38 576.32 1830.38 573.92C1827.38 571.52 1823.38 569.22 1818.38 567.02C1813.58 564.82 1807.58 562.22 1800.38 559.22C1794.58 556.82 1789.08 554.42 1783.88 552.02C1778.68 549.42 1774.08 546.52 1770.08 543.32C1766.08 539.92 1762.88 535.92 1760.48 531.32C1758.08 526.72 1756.88 521.12 1756.88 514.52C1756.88 501.92 1761.58 491.72 1770.98 483.92C1780.58 476.12 1793.68 472.22 1810.28 472.22C1820.88 472.22 1829.58 473.12 1836.38 474.92C1843.38 476.72 1848.28 478.32 1851.08 479.72L1846.58 497.12C1844.18 495.92 1840.08 494.32 1834.28 492.32C1828.68 490.32 1820.38 489.32 1809.38 489.32C1804.98 489.32 1800.78 489.82 1796.78 490.82C1792.98 491.62 1789.58 493.02 1786.58 495.02C1783.58 496.82 1781.18 499.22 1779.38 502.22C1777.58 505.02 1776.68 508.52 1776.68 512.72C1776.68 516.92 1777.48 520.52 1779.08 523.52C1780.68 526.52 1782.98 529.22 1785.98 531.62C1789.18 533.82 1792.98 535.92 1797.38 537.92C1801.98 539.92 1807.18 542.12 1812.98 544.52C1818.98 546.92 1824.68 549.42 1830.08 552.02C1835.68 554.42 1840.58 557.42 1844.78 561.02C1848.98 564.42 1852.38 568.62 1854.98 573.62C1857.58 578.42 1858.88 584.52 1858.88 591.92C1858.88 605.92 1853.58 616.52 1842.98 623.72C1832.58 630.92 1818.28 634.52 1800.08 634.52C1786.48 634.52 1776.08 633.32 1768.88 630.92C1761.68 628.72 1756.88 627.02 1754.48 625.82L1759.58 608.12C1760.18 608.52 1761.48 609.22 1763.48 610.22C1765.48 611.02 1768.18 612.02 1771.58 613.22C1774.98 614.22 1778.98 615.12 1783.58 615.92C1788.38 616.72 1793.88 617.12 1800.08 617.12Z" fill="white"/>
<path d="M71.62 185.18C71.62 199.46 73.3 212.34 76.66 223.82C80.3 235.3 85.34 245.24 91.78 253.64C98.5 261.76 106.62 268.06 116.14 272.54C125.66 277.02 136.58 279.26 148.9 279.26C160.94 279.26 171.72 277.02 181.24 272.54C191.04 268.06 199.16 261.76 205.6 253.64C212.32 245.24 217.36 235.3 220.72 223.82C224.36 212.34 226.18 199.46 226.18 185.18C226.18 170.9 224.36 158.02 220.72 146.54C217.36 134.78 212.32 124.84 205.6 116.72C199.16 108.32 191.04 101.88 181.24 97.4C171.72 92.92 160.94 90.68 148.9 90.68C136.58 90.68 125.66 93.06 116.14 97.82C106.62 102.3 98.5 108.74 91.78 117.14C85.34 125.26 80.3 135.2 76.66 146.96C73.3 158.44 71.62 171.18 71.62 185.18ZM293.8 185.18C293.8 210.1 290.02 232.08 282.46 251.12C275.18 269.88 265.1 285.7 252.22 298.58C239.34 311.18 223.94 320.7 206.02 327.14C188.38 333.58 169.34 336.8 148.9 336.8C129.02 336.8 110.26 333.58 92.62 327.14C74.98 320.7 59.58 311.18 46.42 298.58C33.26 285.7 22.9 269.88 15.34 251.12C7.78 232.08 4 210.1 4 185.18C4 160.26 7.92 138.42 15.76 119.66C23.6 100.62 34.1 84.66 47.26 71.78C60.7 58.9 76.1 49.24 93.46 42.8C111.1 36.36 129.58 33.14 148.9 33.14C168.78 33.14 187.54 36.36 205.18 42.8C222.82 49.24 238.22 58.9 251.38 71.78C264.54 84.66 274.9 100.62 282.46 119.66C290.02 138.42 293.8 160.26 293.8 185.18Z" stroke="#0D1117" stroke-width="8" mask="url(#path-1-outside-1_2_93)"/>
<path d="M342.116 54.98L404.696 44.9V110H479.876V162.08H404.696V239.78C404.696 252.94 406.936 263.44 411.416 271.28C416.176 279.12 425.556 283.04 439.556 283.04C446.276 283.04 453.136 282.48 460.136 281.36C467.416 279.96 473.996 278.14 479.876 275.9L488.696 324.62C481.136 327.7 472.736 330.36 463.496 332.6C454.256 334.84 442.916 335.96 429.476 335.96C412.396 335.96 398.256 333.72 387.056 329.24C375.856 324.48 366.896 318.04 360.176 309.92C353.456 301.52 348.696 291.44 345.896 279.68C343.376 267.92 342.116 254.9 342.116 240.62V54.98Z" stroke="#0D1117" stroke-width="8" mask="url(#path-1-outside-1_2_93)"/>
<path d="M607.054 287.24C613.214 287.24 619.094 287.1 624.694 286.82C630.294 286.54 634.774 286.12 638.134 285.56V238.1C635.614 237.54 631.834 236.98 626.794 236.42C621.754 235.86 617.134 235.58 612.934 235.58C607.054 235.58 601.454 236 596.134 236.84C591.094 237.4 586.614 238.66 582.694 240.62C578.774 242.58 575.694 245.24 573.454 248.6C571.214 251.96 570.094 256.16 570.094 261.2C570.094 271 573.314 277.86 579.754 281.78C586.474 285.42 595.574 287.24 607.054 287.24ZM602.014 104.12C620.494 104.12 635.894 106.22 648.214 110.42C660.534 114.62 670.334 120.64 677.614 128.48C685.174 136.32 690.494 145.84 693.574 157.04C696.654 168.24 698.194 180.7 698.194 194.42V324.62C689.234 326.58 676.774 328.82 660.814 331.34C644.854 334.14 625.534 335.54 602.854 335.54C588.574 335.54 575.554 334.28 563.794 331.76C552.314 329.24 542.374 325.18 533.974 319.58C525.574 313.7 519.134 306.14 514.654 296.9C510.174 287.66 507.934 276.32 507.934 262.88C507.934 250 510.454 239.08 515.494 230.12C520.814 221.16 527.814 214.02 536.494 208.7C545.174 203.38 555.114 199.6 566.314 197.36C577.514 194.84 589.134 193.58 601.174 193.58C609.294 193.58 616.434 194 622.594 194.84C629.034 195.4 634.214 196.24 638.134 197.36V191.48C638.134 180.84 634.914 172.3 628.474 165.86C622.034 159.42 610.834 156.2 594.874 156.2C584.234 156.2 573.734 157.04 563.374 158.72C553.014 160.12 544.054 162.22 536.494 165.02L528.514 114.62C532.154 113.5 536.634 112.38 541.954 111.26C547.554 109.86 553.574 108.74 560.014 107.9C566.454 106.78 573.174 105.94 580.174 105.38C587.454 104.54 594.734 104.12 602.014 104.12Z" stroke="#0D1117" stroke-width="8" mask="url(#path-1-outside-1_2_93)"/>
<path d="M817.363 189.8C823.523 183.08 829.823 176.08 836.263 168.8C842.983 161.52 849.423 154.38 855.583 147.38C861.743 140.1 867.483 133.24 872.803 126.8C878.403 120.36 883.163 114.76 887.083 110H961.423C946.583 127.08 932.023 143.46 917.743 159.14C903.743 174.54 888.343 190.5 871.543 207.02C879.943 214.58 888.623 223.68 897.583 234.32C906.543 244.68 915.223 255.46 923.623 266.66C932.023 277.86 939.723 289.06 946.723 300.26C953.723 311.46 959.603 321.68 964.363 330.92H892.543C888.063 323.64 882.883 315.66 877.003 306.98C871.403 298.02 865.383 289.2 858.943 280.52C852.503 271.56 845.643 263.02 838.363 254.9C831.363 246.78 824.363 239.92 817.363 234.32V330.92H754.783V15.08L817.363 5V189.8Z" stroke="#0D1117" stroke-width="8" mask="url(#path-1-outside-1_2_93)"/>
<path d="M1182.48 323.36C1171.84 326.44 1158.12 329.24 1141.32 331.76C1124.52 334.56 1106.88 335.96 1088.4 335.96C1069.64 335.96 1053.96 333.44 1041.36 328.4C1029.04 323.36 1019.24 316.36 1011.96 307.4C1004.68 298.16 999.504 287.24 996.424 274.64C993.344 262.04 991.804 248.18 991.804 233.06V110H1054.38V225.5C1054.38 245.66 1057.04 260.22 1062.36 269.18C1067.68 278.14 1077.62 282.62 1092.18 282.62C1096.66 282.62 1101.42 282.48 1106.46 282.2C1111.5 281.64 1115.98 281.08 1119.9 280.52V110H1182.48V323.36Z" stroke="#0D1117" stroke-width="8" mask="url(#path-1-outside-1_2_93)"/>
<path d="M1241.23 117.56C1251.87 114.48 1265.59 111.68 1282.39 109.16C1299.19 106.36 1316.83 104.96 1335.31 104.96C1354.07 104.96 1369.61 107.48 1381.93 112.52C1394.53 117.28 1404.47 124.14 1411.75 133.1C1419.03 142.06 1424.21 152.7 1427.29 165.02C1430.37 177.34 1431.91 191.06 1431.91 206.18V330.92H1369.33V213.74C1369.33 193.58 1366.67 179.3 1361.35 170.9C1356.03 162.5 1346.09 158.3 1331.53 158.3C1327.05 158.3 1322.29 158.58 1317.25 159.14C1312.21 159.42 1307.73 159.84 1303.81 160.4V330.92H1241.23V117.56Z" stroke="#0D1117" stroke-width="8" mask="url(#path-1-outside-1_2_93)"/>
<path d="M1551.13 330.92H1488.55V110H1551.13V330.92ZM1557.01 46.16C1557.01 57.64 1553.23 66.74 1545.67 73.46C1538.39 79.9 1529.71 83.12 1519.63 83.12C1509.55 83.12 1500.73 79.9 1493.17 73.46C1485.89 66.74 1482.25 57.64 1482.25 46.16C1482.25 34.68 1485.89 25.72 1493.17 19.28C1500.73 12.56 1509.55 9.2 1519.63 9.2C1529.71 9.2 1538.39 12.56 1545.67 19.28C1553.23 25.72 1557.01 34.68 1557.01 46.16Z" stroke="#0D1117" stroke-width="8" mask="url(#path-1-outside-1_2_93)"/>
<path d="M1607.86 54.98L1670.44 44.9V110H1745.62V162.08H1670.44V239.78C1670.44 252.94 1672.68 263.44 1677.16 271.28C1681.92 279.12 1691.3 283.04 1705.3 283.04C1712.02 283.04 1718.88 282.48 1725.88 281.36C1733.16 279.96 1739.74 278.14 1745.62 275.9L1754.44 324.62C1746.88 327.7 1738.48 330.36 1729.24 332.6C1720 334.84 1708.66 335.96 1695.22 335.96C1678.14 335.96 1664 333.72 1652.8 329.24C1641.6 324.48 1632.64 318.04 1625.92 309.92C1619.2 301.52 1614.44 291.44 1611.64 279.68C1609.12 267.92 1607.86 254.9 1607.86 240.62V54.98Z" stroke="#0D1117" stroke-width="8" mask="url(#path-1-outside-1_2_93)"/>
<path d="M1996.82 110C1984.22 152.56 1971.06 192.46 1957.34 229.7C1943.62 266.94 1928.64 303.06 1912.4 338.06C1906.52 350.66 1900.64 361.3 1894.76 369.98C1888.88 378.94 1882.44 386.22 1875.44 391.82C1868.44 397.7 1860.46 401.9 1851.5 404.42C1842.82 407.22 1832.6 408.62 1820.84 408.62C1811.04 408.62 1801.94 407.64 1793.54 405.68C1785.42 404 1778.7 402.04 1773.38 399.8L1784.3 349.82C1790.74 352.06 1796.48 353.6 1801.52 354.44C1806.56 355.28 1811.88 355.7 1817.48 355.7C1828.68 355.7 1837.22 352.62 1843.1 346.46C1849.26 340.58 1854.44 332.32 1858.64 321.68C1844.36 293.68 1830.08 262.32 1815.8 227.6C1801.52 192.6 1788.08 153.4 1775.48 110H1841.84C1844.64 120.92 1847.86 132.82 1851.5 145.7C1855.42 158.3 1859.48 171.18 1863.68 184.34C1867.88 197.22 1872.08 209.82 1876.28 222.14C1880.76 234.46 1884.96 245.66 1888.88 255.74C1892.52 245.66 1896.3 234.46 1900.22 222.14C1904.14 209.82 1907.92 197.22 1911.56 184.34C1915.48 171.18 1919.12 158.3 1922.48 145.7C1926.12 132.82 1929.34 120.92 1932.14 110H1996.82Z" stroke="#0D1117" stroke-width="8" mask="url(#path-1-outside-1_2_93)"/>
<path d="M273.164 423.02V440.72H206.564V630.92H186.164V440.72H119.564V423.02H273.164Z" stroke="#0D1117" stroke-width="8" mask="url(#path-1-outside-1_2_93)"/>
<path d="M281.836 553.22C281.836 539.62 283.736 527.82 287.536 517.82C291.536 507.62 296.636 499.12 302.836 492.32C309.236 485.52 316.436 480.52 324.436 477.32C332.636 473.92 341.036 472.22 349.636 472.22C368.636 472.22 383.736 478.42 394.936 490.82C406.336 503.22 412.036 522.32 412.036 548.12C412.036 549.72 411.936 551.32 411.736 552.92C411.736 554.52 411.636 556.02 411.436 557.42H302.536C303.136 576.42 307.836 591.02 316.636 601.22C325.436 611.42 339.436 616.52 358.636 616.52C369.236 616.52 377.636 615.52 383.836 613.52C390.036 611.52 394.536 609.82 397.336 608.42L400.936 625.22C398.136 626.82 392.836 628.72 385.036 630.92C377.436 633.12 368.436 634.22 358.036 634.22C344.436 634.22 332.836 632.22 323.236 628.22C313.636 624.22 305.736 618.62 299.536 611.42C293.336 604.22 288.836 595.72 286.036 585.92C283.236 575.92 281.836 565.02 281.836 553.22ZM391.936 540.92C391.536 524.72 387.736 512.12 380.536 503.12C373.336 494.12 363.136 489.62 349.936 489.62C342.936 489.62 336.636 491.02 331.036 493.82C325.636 496.62 320.836 500.42 316.636 505.22C312.636 509.82 309.436 515.22 307.036 521.42C304.836 527.62 303.536 534.12 303.136 540.92H391.936Z" stroke="#0D1117" stroke-width="8" mask="url(#path-1-outside-1_2_93)"/>
<path d="M519.691 634.22C507.691 634.22 497.091 632.32 487.891 628.52C478.691 624.72 470.991 619.32 464.791 612.32C458.791 605.12 454.191 596.62 450.991 586.82C447.791 576.82 446.191 565.82 446.191 553.82C446.191 541.62 447.791 530.52 450.991 520.52C454.391 510.52 459.191 501.92 465.391 494.72C471.591 487.52 479.091 482.02 487.891 478.22C496.691 474.22 506.591 472.22 517.591 472.22C525.991 472.22 533.791 472.92 540.991 474.32C548.391 475.72 554.091 477.52 558.091 479.72L552.991 496.52C548.991 494.52 544.491 492.92 539.491 491.72C534.491 490.52 527.791 489.92 519.391 489.92C502.191 489.92 489.091 495.52 480.091 506.72C471.291 517.72 466.891 533.42 466.891 553.82C466.891 563.02 467.891 571.52 469.891 579.32C471.891 586.92 475.091 593.52 479.491 599.12C484.091 604.52 489.891 608.82 496.891 612.02C504.091 615.02 512.791 616.52 522.991 616.52C531.391 616.52 538.391 615.62 543.991 613.82C549.791 611.82 553.991 610.12 556.591 608.72L560.791 625.52C557.191 627.52 551.491 629.42 543.691 631.22C536.091 633.22 528.091 634.22 519.691 634.22Z" stroke="#0D1117" stroke-width="8" mask="url(#path-1-outside-1_2_93)"/>
<path d="M593.48 630.92V401.72L612.98 398.12V480.32C619.38 477.92 625.88 476.12 632.48 474.92C639.08 473.52 645.68 472.82 652.28 472.82C664.28 472.82 674.28 474.52 682.28 477.92C690.28 481.32 696.68 486.22 701.48 492.62C706.28 498.82 709.58 506.32 711.38 515.12C713.38 523.92 714.38 533.62 714.38 544.22V630.92H694.88V550.52C694.88 539.52 694.08 530.22 692.48 522.62C691.08 515.02 688.58 508.82 684.98 504.02C681.58 499.22 676.98 495.82 671.18 493.82C665.38 491.62 658.08 490.52 649.28 490.52C645.88 490.52 642.18 490.82 638.18 491.42C634.38 492.02 630.78 492.72 627.38 493.52C623.98 494.12 620.88 494.82 618.08 495.62C615.48 496.42 613.78 497.02 612.98 497.42V630.92H593.48Z" stroke="#0D1117" stroke-width="8" mask="url(#path-1-outside-1_2_93)"/>
<path d="M764.28 481.22C770.08 479.62 777.88 477.82 787.68 475.82C797.48 473.82 809.48 472.82 823.68 472.82C835.48 472.82 845.281 474.52 853.081 477.92C861.081 481.32 867.38 486.22 871.98 492.62C876.78 498.82 880.18 506.32 882.18 515.12C884.18 523.92 885.18 533.62 885.18 544.22V630.92H865.68V550.52C865.68 539.52 864.88 530.22 863.28 522.62C861.88 515.02 859.38 508.82 855.78 504.02C852.38 499.22 847.78 495.82 841.98 493.82C836.38 491.62 829.28 490.52 820.68 490.52C811.48 490.52 803.48 491.02 796.68 492.02C790.08 493.02 785.78 493.92 783.78 494.72V630.92H764.28V481.22Z" stroke="#0D1117" stroke-width="8" mask="url(#path-1-outside-1_2_93)"/>
<path d="M1067.38 553.52C1067.38 565.72 1065.58 576.82 1061.98 586.82C1058.58 596.82 1053.68 605.32 1047.28 612.32C1041.08 619.32 1033.68 624.82 1025.08 628.82C1016.48 632.62 1006.98 634.52 996.581 634.52C986.181 634.52 976.681 632.62 968.081 628.82C959.481 624.82 951.981 619.32 945.581 612.32C939.381 605.32 934.481 596.82 930.881 586.82C927.481 576.82 925.781 565.72 925.781 553.52C925.781 541.32 927.481 530.22 930.881 520.22C934.481 510.22 939.381 501.72 945.581 494.72C951.981 487.52 959.481 482.02 968.081 478.22C976.681 474.22 986.181 472.22 996.581 472.22C1006.98 472.22 1016.48 474.22 1025.08 478.22C1033.68 482.02 1041.08 487.52 1047.28 494.72C1053.68 501.72 1058.58 510.22 1061.98 520.22C1065.58 530.22 1067.38 541.32 1067.38 553.52ZM1046.68 553.52C1046.68 534.12 1042.18 518.72 1033.18 507.32C1024.18 495.72 1011.98 489.92 996.581 489.92C981.181 489.92 968.981 495.72 959.981 507.32C950.981 518.72 946.481 534.12 946.481 553.52C946.481 572.92 950.981 588.32 959.981 599.72C968.981 611.12 981.181 616.82 996.581 616.82C1011.98 616.82 1024.18 611.12 1033.18 599.72C1042.18 588.32 1046.68 572.92 1046.68 553.52Z" stroke="#0D1117" stroke-width="8" mask="url(#path-1-outside-1_2_93)"/>
<path d="M1148.99 633.62C1142.39 633.42 1136.59 632.52 1131.59 630.92C1126.79 629.52 1122.69 627.32 1119.29 624.32C1116.09 621.12 1113.59 617.12 1111.79 612.32C1110.19 607.32 1109.39 601.12 1109.39 593.72V401.72L1128.89 398.12V593.12C1128.89 597.92 1129.29 601.82 1130.09 604.82C1131.09 607.62 1132.49 609.92 1134.29 611.72C1136.09 613.32 1138.39 614.52 1141.19 615.32C1144.19 616.12 1147.69 616.82 1151.69 617.42L1148.99 633.62Z" stroke="#0D1117" stroke-width="8" mask="url(#path-1-outside-1_2_93)"/>
<path d="M1318.46 553.52C1318.46 565.72 1316.66 576.82 1313.06 586.82C1309.66 596.82 1304.76 605.32 1298.36 612.32C1292.16 619.32 1284.76 624.82 1276.16 628.82C1267.56 632.62 1258.06 634.52 1247.66 634.52C1237.26 634.52 1227.76 632.62 1219.16 628.82C1210.56 624.82 1203.06 619.32 1196.66 612.32C1190.46 605.32 1185.56 596.82 1181.96 586.82C1178.56 576.82 1176.86 565.72 1176.86 553.52C1176.86 541.32 1178.56 530.22 1181.96 520.22C1185.56 510.22 1190.46 501.72 1196.66 494.72C1203.06 487.52 1210.56 482.02 1219.16 478.22C1227.76 474.22 1237.26 472.22 1247.66 472.22C1258.06 472.22 1267.56 474.22 1276.16 478.22C1284.76 482.02 1292.16 487.52 1298.36 494.72C1304.76 501.72 1309.66 510.22 1313.06 520.22C1316.66 530.22 1318.46 541.32 1318.46 553.52ZM1297.76 553.52C1297.76 534.12 1293.26 518.72 1284.26 507.32C1275.26 495.72 1263.06 489.92 1247.66 489.92C1232.26 489.92 1220.06 495.72 1211.06 507.32C1202.06 518.72 1197.56 534.12 1197.56 553.52C1197.56 572.92 1202.06 588.32 1211.06 599.72C1220.06 611.12 1232.26 616.82 1247.66 616.82C1263.06 616.82 1275.26 611.12 1284.26 599.72C1293.26 588.32 1297.76 572.92 1297.76 553.52Z" stroke="#0D1117" stroke-width="8" mask="url(#path-1-outside-1_2_93)"/>
<path d="M1461.86 612.92C1460.66 613.92 1458.86 615.12 1456.46 616.52C1454.06 617.72 1451.06 619.02 1447.46 620.42C1444.06 621.82 1440.06 623.02 1435.46 624.02C1431.06 624.82 1426.06 625.22 1420.46 625.22C1411.46 625.22 1402.76 623.82 1394.36 621.02C1385.96 618.22 1378.56 613.82 1372.16 607.82C1365.96 601.82 1360.96 594.12 1357.16 584.72C1353.36 575.12 1351.46 563.52 1351.46 549.92C1351.46 538.92 1353.16 528.72 1356.56 519.32C1359.96 509.92 1364.76 501.82 1370.96 495.02C1377.36 488.02 1385.06 482.62 1394.06 478.82C1403.26 474.82 1413.56 472.82 1424.96 472.82C1439.36 472.82 1450.86 473.82 1459.46 475.82C1468.26 477.62 1475.46 479.42 1481.06 481.22V622.82C1481.06 646.02 1475.06 662.52 1463.06 672.32C1451.06 682.32 1432.96 687.32 1408.76 687.32C1398.76 687.32 1389.66 686.52 1381.46 684.92C1373.46 683.52 1366.56 681.82 1360.76 679.82L1364.66 662.12C1369.46 664.32 1375.96 666.22 1384.16 667.82C1392.56 669.42 1400.96 670.22 1409.36 670.22C1427.76 670.22 1441.06 666.62 1449.26 659.42C1457.66 652.42 1461.86 640.32 1461.86 623.12V612.92ZM1461.56 494.72C1458.16 493.72 1453.76 492.82 1448.36 492.02C1442.96 491.02 1435.26 490.52 1425.26 490.52C1416.86 490.52 1409.36 492.02 1402.76 495.02C1396.36 497.82 1390.86 501.92 1386.26 507.32C1381.66 512.52 1378.16 518.82 1375.76 526.22C1373.36 533.42 1372.16 541.42 1372.16 550.22C1372.16 560.42 1373.56 569.22 1376.36 576.62C1379.16 583.82 1382.76 589.72 1387.16 594.32C1391.76 598.92 1396.96 602.32 1402.76 604.52C1408.56 606.52 1414.46 607.52 1420.46 607.52C1429.26 607.52 1437.26 606.22 1444.46 603.62C1451.86 601.02 1457.56 598.02 1461.56 594.62V494.72Z" stroke="#0D1117" stroke-width="8" mask="url(#path-1-outside-1_2_93)"/>
<path d="M1552.24 630.92H1532.74V475.82H1552.24V630.92ZM1556.74 429.02C1556.74 433.62 1555.34 437.32 1552.54 440.12C1549.74 442.72 1546.34 444.02 1542.34 444.02C1538.34 444.02 1534.94 442.72 1532.14 440.12C1529.34 437.32 1527.94 433.62 1527.94 429.02C1527.94 424.42 1529.34 420.82 1532.14 418.22C1534.94 415.42 1538.34 414.02 1542.34 414.02C1546.34 414.02 1549.74 415.42 1552.54 418.22C1555.34 420.82 1556.74 424.42 1556.74 429.02Z" stroke="#0D1117" stroke-width="8" mask="url(#path-1-outside-1_2_93)"/>
<path d="M1594.63 553.22C1594.63 539.62 1596.53 527.82 1600.33 517.82C1604.33 507.62 1609.43 499.12 1615.63 492.32C1622.03 485.52 1629.23 480.52 1637.23 477.32C1645.43 473.92 1653.83 472.22 1662.43 472.22C1681.43 472.22 1696.53 478.42 1707.73 490.82C1719.13 503.22 1724.83 522.32 1724.83 548.12C1724.83 549.72 1724.73 551.32 1724.53 552.92C1724.53 554.52 1724.43 556.02 1724.23 557.42H1615.33C1615.93 576.42 1620.63 591.02 1629.43 601.22C1638.23 611.42 1652.23 616.52 1671.43 616.52C1682.03 616.52 1690.43 615.52 1696.63 613.52C1702.83 611.52 1707.33 609.82 1710.13 608.42L1713.73 625.22C1710.93 626.82 1705.63 628.72 1697.83 630.92C1690.23 633.12 1681.23 634.22 1670.83 634.22C1657.23 634.22 1645.63 632.22 1636.03 628.22C1626.43 624.22 1618.53 618.62 1612.33 611.42C1606.13 604.22 1601.63 595.72 1598.83 585.92C1596.03 575.92 1594.63 565.02 1594.63 553.22ZM1704.73 540.92C1704.33 524.72 1700.53 512.12 1693.33 503.12C1686.13 494.12 1675.93 489.62 1662.73 489.62C1655.73 489.62 1649.43 491.02 1643.83 493.82C1638.43 496.62 1633.63 500.42 1629.43 505.22C1625.43 509.82 1622.23 515.22 1619.83 521.42C1617.63 527.62 1616.33 534.12 1615.93 540.92H1704.73Z" stroke="#0D1117" stroke-width="8" mask="url(#path-1-outside-1_2_93)"/>
<path d="M1800.08 617.12C1811.28 617.12 1820.48 615.32 1827.68 611.72C1835.08 607.92 1838.78 601.62 1838.78 592.82C1838.78 588.62 1838.08 585.02 1836.68 582.02C1835.48 579.02 1833.38 576.32 1830.38 573.92C1827.38 571.52 1823.38 569.22 1818.38 567.02C1813.58 564.82 1807.58 562.22 1800.38 559.22C1794.58 556.82 1789.08 554.42 1783.88 552.02C1778.68 549.42 1774.08 546.52 1770.08 543.32C1766.08 539.92 1762.88 535.92 1760.48 531.32C1758.08 526.72 1756.88 521.12 1756.88 514.52C1756.88 501.92 1761.58 491.72 1770.98 483.92C1780.58 476.12 1793.68 472.22 1810.28 472.22C1820.88 472.22 1829.58 473.12 1836.38 474.92C1843.38 476.72 1848.28 478.32 1851.08 479.72L1846.58 497.12C1844.18 495.92 1840.08 494.32 1834.28 492.32C1828.68 490.32 1820.38 489.32 1809.38 489.32C1804.98 489.32 1800.78 489.82 1796.78 490.82C1792.98 491.62 1789.58 493.02 1786.58 495.02C1783.58 496.82 1781.18 499.22 1779.38 502.22C1777.58 505.02 1776.68 508.52 1776.68 512.72C1776.68 516.92 1777.48 520.52 1779.08 523.52C1780.68 526.52 1782.98 529.22 1785.98 531.62C1789.18 533.82 1792.98 535.92 1797.38 537.92C1801.98 539.92 1807.18 542.12 1812.98 544.52C1818.98 546.92 1824.68 549.42 1830.08 552.02C1835.68 554.42 1840.58 557.42 1844.78 561.02C1848.98 564.42 1852.38 568.62 1854.98 573.62C1857.58 578.42 1858.88 584.52 1858.88 591.92C1858.88 605.92 1853.58 616.52 1842.98 623.72C1832.58 630.92 1818.28 634.52 1800.08 634.52C1786.48 634.52 1776.08 633.32 1768.88 630.92C1761.68 628.72 1756.88 627.02 1754.48 625.82L1759.58 608.12C1760.18 608.52 1761.48 609.22 1763.48 610.22C1765.48 611.02 1768.18 612.02 1771.58 613.22C1774.98 614.22 1778.98 615.12 1783.58 615.92C1788.38 616.72 1793.88 617.12 1800.08 617.12Z" stroke="#0D1117" stroke-width="8" mask="url(#path-1-outside-1_2_93)"/>
</svg>
