<svg width="9809" height="2048" viewBox="0 0 9809 2048" fill="none" xmlns="http://www.w3.org/2000/svg">
<g clip-path="url(#clip0_16_346)">
<g clip-path="url(#clip1_16_346)">
<path fill-rule="evenodd" clip-rule="evenodd" d="M1024 2048C1589.54 2048 2048 1589.54 2048 1024C2048 458.46 1589.54 0 1024 0C458.46 0 0 458.46 0 1024C0 1589.54 458.46 2048 1024 2048ZM1024 1664C1377.46 1664 1664 1377.46 1664 1024C1664 670.538 1377.46 384 1024 384C670.538 384 384 670.538 384 1024C384 1377.46 670.538 1664 1024 1664Z" fill="#23272A"/>
<path fill-rule="evenodd" clip-rule="evenodd" d="M1748.08 1024L1024 299.922L299.923 1024L1024 1748.08L1748.08 1024ZM1263.18 879.184L1168.82 784.815C1118.13 734.125 1092.78 708.779 1063.55 699.283C1037.85 690.93 1010.15 690.93 984.446 699.283C955.22 708.779 929.875 734.125 879.184 784.815L784.815 879.184C734.125 929.874 708.78 955.219 699.284 984.445C690.931 1010.15 690.931 1037.85 699.284 1063.55C708.78 1092.78 734.125 1118.12 784.816 1168.81L879.184 1263.18C929.875 1313.87 955.22 1339.22 984.446 1348.72C1010.15 1357.07 1037.85 1357.07 1063.55 1348.72C1092.78 1339.22 1118.13 1313.87 1168.82 1263.18L1263.18 1168.81C1313.87 1118.12 1339.22 1092.78 1348.72 1063.55C1357.07 1037.85 1357.07 1010.15 1348.72 984.445C1339.22 955.219 1313.87 929.874 1263.18 879.184Z" fill="#23272A"/>
</g>
</g>
<path d="M2749.22 1082.94C2749.22 1141.31 2756.38 1194.56 2770.72 1242.69C2785.06 1289.79 2805.54 1330.24 2832.16 1364.03C2859.81 1396.8 2893.09 1422.4 2932 1440.83C2970.91 1459.26 3014.94 1468.48 3064.1 1468.48C3112.22 1468.48 3155.74 1459.26 3194.66 1440.83C3233.57 1422.4 3266.34 1396.8 3292.96 1364.03C3320.61 1330.24 3341.6 1289.79 3355.94 1242.69C3370.27 1194.56 3377.44 1141.31 3377.44 1082.94C3377.44 1024.58 3370.27 971.84 3355.94 924.736C3341.6 876.608 3320.61 836.16 3292.96 803.392C3266.34 769.6 3233.57 743.488 3194.66 725.056C3155.74 706.624 3112.22 697.408 3064.1 697.408C3014.94 697.408 2970.91 706.624 2932 725.056C2893.09 743.488 2859.81 769.6 2832.16 803.392C2805.54 837.184 2785.06 877.632 2770.72 924.736C2756.38 971.84 2749.22 1024.58 2749.22 1082.94ZM3580.19 1082.94C3580.19 1174.08 3566.37 1254.46 3538.72 1324.1C3512.1 1393.73 3475.23 1452.1 3428.13 1499.2C3382.05 1545.28 3327.78 1580.1 3265.31 1603.65C3202.85 1627.2 3136.29 1638.98 3065.63 1638.98C2994.98 1638.98 2927.9 1627.2 2864.42 1603.65C2801.95 1580.1 2747.17 1545.28 2700.06 1499.2C2653.98 1452.1 2617.12 1393.73 2589.47 1324.1C2561.82 1254.46 2548 1174.08 2548 1082.94C2548 991.808 2561.82 911.936 2589.47 843.328C2617.12 773.696 2654.5 715.328 2701.6 668.224C2749.73 621.12 2805.02 585.792 2867.49 562.24C2929.95 538.688 2996 526.912 3065.63 526.912C3135.26 526.912 3201.31 538.688 3263.78 562.24C3326.24 585.792 3380.51 621.12 3426.59 668.224C3473.7 715.328 3511.07 773.696 3538.72 843.328C3566.37 911.936 3580.19 991.808 3580.19 1082.94Z" fill="#23272A"/>
<path d="M3774.08 600.64L3959.93 569.92V812.608H4245.63V967.744H3959.93V1294.91C3959.93 1359.42 3970.17 1405.5 3990.65 1433.15C4011.13 1460.8 4045.95 1474.62 4095.1 1474.62C4128.89 1474.62 4158.59 1471.04 4184.19 1463.87C4210.81 1456.7 4231.8 1450.05 4247.16 1443.9L4277.88 1591.36C4256.38 1600.58 4228.22 1609.79 4193.4 1619.01C4158.59 1629.25 4117.63 1634.37 4070.52 1634.37C4013.18 1634.37 3965.05 1626.69 3926.14 1611.33C3888.25 1595.97 3858.04 1573.95 3835.52 1545.28C3812.99 1515.58 3797.12 1480.26 3787.9 1439.3C3778.68 1397.31 3774.08 1349.7 3774.08 1296.45V600.64Z" fill="#23272A"/>
<path d="M4707.92 1485.38C4765.26 1485.38 4808.78 1482.3 4838.48 1476.16V1270.34C4828.24 1267.26 4813.39 1264.19 4793.93 1261.12C4774.48 1258.05 4752.97 1256.51 4729.42 1256.51C4708.94 1256.51 4687.95 1258.05 4666.44 1261.12C4645.96 1264.19 4627.02 1269.82 4609.61 1278.02C4593.23 1286.21 4579.92 1297.98 4569.68 1313.34C4559.44 1327.68 4554.32 1346.11 4554.32 1368.64C4554.32 1412.67 4568.14 1443.39 4595.79 1460.8C4623.44 1477.18 4660.81 1485.38 4707.92 1485.38ZM4692.56 792.64C4754 792.64 4805.71 800.32 4847.69 815.68C4889.68 831.04 4922.96 852.544 4947.53 880.192C4973.13 907.84 4991.05 941.632 5001.29 981.568C5012.56 1020.48 5018.19 1063.49 5018.19 1110.59V1597.5C4989.52 1603.65 4946 1610.82 4887.63 1619.01C4830.28 1628.22 4765.26 1632.83 4692.56 1632.83C4644.43 1632.83 4600.4 1628.22 4560.46 1619.01C4520.52 1609.79 4486.22 1594.94 4457.55 1574.46C4429.9 1553.98 4407.88 1527.36 4391.5 1494.59C4376.14 1461.82 4368.46 1421.38 4368.46 1373.25C4368.46 1327.17 4377.16 1288.26 4394.57 1256.51C4413 1224.77 4437.58 1199.17 4468.3 1179.71C4499.02 1159.23 4534.35 1144.9 4574.28 1136.7C4615.24 1127.49 4657.74 1122.88 4701.77 1122.88C4722.25 1122.88 4743.76 1124.42 4766.28 1127.49C4788.81 1129.54 4812.88 1133.63 4838.48 1139.78V1109.06C4838.48 1087.55 4835.92 1067.07 4830.8 1047.62C4825.68 1028.16 4816.46 1011.26 4803.15 996.928C4790.86 981.568 4773.96 969.792 4752.46 961.6C4731.98 953.408 4705.87 949.312 4674.12 949.312C4631.12 949.312 4591.69 952.384 4555.85 958.528C4520.01 964.672 4490.83 971.84 4468.3 980.032L4445.26 829.504C4468.81 821.312 4503.12 813.12 4548.17 804.928C4593.23 796.736 4641.36 792.64 4692.56 792.64Z" fill="#23272A"/>
<path d="M5431.65 1125.95C5455.2 1101.38 5480.29 1075.26 5506.91 1047.62C5533.54 1018.94 5559.65 990.784 5585.25 963.136C5610.85 934.464 5634.91 907.328 5657.44 881.728C5680.99 855.104 5700.96 832.064 5717.34 812.608H5936.99C5885.79 869.952 5831.52 929.344 5774.18 990.784C5717.86 1052.22 5661.02 1112.13 5603.68 1170.5C5634.4 1196.1 5666.66 1227.33 5700.45 1264.19C5734.24 1300.03 5767.01 1338.43 5798.75 1379.39C5830.5 1420.35 5860.19 1461.31 5887.84 1502.27C5915.49 1543.23 5938.53 1581.12 5956.96 1615.94H5741.92C5723.49 1584.19 5701.98 1550.91 5677.41 1516.1C5653.86 1481.28 5628.26 1447.49 5600.61 1414.72C5572.96 1381.95 5544.8 1351.23 5516.13 1322.56C5487.46 1292.86 5459.3 1267.78 5431.65 1247.3V1615.94H5245.79V454.72L5431.65 424V1125.95Z" fill="#23272A"/>
<path d="M6750.74 1591.36C6714.9 1600.58 6668.3 1609.79 6610.96 1619.01C6553.62 1629.25 6490.64 1634.37 6422.03 1634.37C6357.52 1634.37 6303.25 1625.15 6259.22 1606.72C6216.21 1588.29 6181.39 1562.69 6154.77 1529.92C6129.17 1497.15 6110.74 1458.24 6099.47 1413.18C6088.21 1367.1 6082.58 1316.93 6082.58 1262.66V812.608H6268.43V1233.47C6268.43 1319.49 6280.72 1380.93 6305.3 1417.79C6330.9 1454.66 6374.93 1473.09 6437.39 1473.09C6459.92 1473.09 6483.47 1472.06 6508.05 1470.02C6533.65 1467.97 6552.59 1465.41 6564.88 1462.34V812.608H6750.74V1591.36Z" fill="#23272A"/>
<path d="M6987.29 838.72C7023.13 828.48 7069.72 818.752 7127.07 809.536C7184.41 800.32 7247.9 795.712 7317.53 795.712C7383.07 795.712 7437.85 804.928 7481.88 823.36C7525.92 840.768 7560.73 865.856 7586.33 898.624C7612.96 930.368 7631.39 969.28 7641.63 1015.36C7652.89 1060.42 7658.52 1110.08 7658.52 1164.35V1615.94H7472.67V1193.54C7472.67 1150.53 7469.6 1114.18 7463.45 1084.48C7458.33 1053.76 7449.12 1029.18 7435.8 1010.75C7423.52 991.296 7406.11 977.472 7383.58 969.28C7362.08 960.064 7335.45 955.456 7303.71 955.456C7280.16 955.456 7255.58 956.992 7229.98 960.064C7204.38 963.136 7185.44 965.696 7173.15 967.744V1615.94H6987.29V838.72Z" fill="#23272A"/>
<path d="M8073.18 1615.94H7887.33V812.608H8073.18V1615.94ZM8093.15 577.6C8093.15 612.416 8081.89 640.064 8059.36 660.544C8036.83 681.024 8010.21 691.264 7979.49 691.264C7947.74 691.264 7920.61 681.024 7898.08 660.544C7875.55 640.064 7864.29 612.416 7864.29 577.6C7864.29 541.76 7875.55 513.6 7898.08 493.12C7920.61 472.64 7947.74 462.4 7979.49 462.4C8010.21 462.4 8036.83 472.64 8059.36 493.12C8081.89 513.6 8093.15 541.76 8093.15 577.6Z" fill="#23272A"/>
<path d="M8301.08 600.64L8486.93 569.92V812.608H8772.63V967.744H8486.93V1294.91C8486.93 1359.42 8497.17 1405.5 8517.65 1433.15C8538.13 1460.8 8572.95 1474.62 8622.1 1474.62C8655.89 1474.62 8685.59 1471.04 8711.19 1463.87C8737.81 1456.7 8758.8 1450.05 8774.16 1443.9L8804.88 1591.36C8783.38 1600.58 8755.22 1609.79 8720.4 1619.01C8685.59 1629.25 8644.63 1634.37 8597.52 1634.37C8540.18 1634.37 8492.05 1626.69 8453.14 1611.33C8415.25 1595.97 8385.04 1573.95 8362.52 1545.28C8339.99 1515.58 8324.12 1480.26 8314.9 1439.3C8305.68 1397.31 8301.08 1349.7 8301.08 1296.45V600.64Z" fill="#23272A"/>
<path d="M9608.16 812.608C9525.22 1117.76 9428.96 1394.24 9319.4 1642.05C9298.92 1688.13 9277.92 1727.55 9256.42 1760.32C9234.92 1793.09 9210.85 1820.22 9184.23 1841.73C9157.6 1863.23 9127.91 1878.59 9095.14 1887.81C9062.37 1898.05 9024.48 1903.17 8981.48 1903.17C8952.8 1903.17 8924.13 1900.1 8895.46 1893.95C8867.81 1887.81 8846.82 1881.15 8832.48 1873.98L8866.28 1724.99C8903.14 1739.33 8939.49 1746.5 8975.33 1746.5C9023.46 1746.5 9060.84 1734.72 9087.46 1711.17C9115.11 1688.64 9139.17 1653.31 9159.65 1605.18C9101.28 1492.54 9044.96 1369.66 8990.69 1236.54C8937.44 1103.42 8889.83 962.112 8847.84 812.608H9045.99C9056.23 855.616 9068.52 902.208 9082.85 952.384C9098.21 1002.56 9114.6 1053.76 9132 1105.98C9149.41 1157.18 9167.84 1208.38 9187.3 1259.58C9206.76 1310.78 9226.21 1358.4 9245.67 1402.43C9278.44 1311.3 9309.16 1214.53 9337.83 1112.13C9366.5 1008.7 9392.61 908.864 9416.16 812.608H9608.16Z" fill="#23272A"/>
<defs>
<clipPath id="clip0_16_346">
<rect width="2048" height="2048" fill="white"/>
</clipPath>
<clipPath id="clip1_16_346">
<rect width="2048" height="2048" fill="white"/>
</clipPath>
</defs>
</svg>
