<svg width="7061" height="1480" viewBox="0 0 7061 1480" fill="none" xmlns="http://www.w3.org/2000/svg">
<path d="M201.216 658.944C201.216 717.312 208.384 770.56 222.72 818.688C237.056 865.792 257.536 906.24 284.16 940.032C311.808 972.8 345.088 998.4 384 1016.83C422.912 1035.26 466.944 1044.48 516.096 1044.48C564.224 1044.48 607.744 1035.26 646.656 1016.83C685.568 998.4 718.336 972.8 744.96 940.032C772.608 906.24 793.6 865.792 807.936 818.688C822.272 770.56 829.44 717.312 829.44 658.944C829.44 600.576 822.272 547.84 807.936 500.736C793.6 452.608 772.608 412.16 744.96 379.392C718.336 345.6 685.568 319.488 646.656 301.056C607.744 282.624 564.224 273.408 516.096 273.408C466.944 273.408 422.912 282.624 384 301.056C345.088 319.488 311.808 345.6 284.16 379.392C257.536 413.184 237.056 453.632 222.72 500.736C208.384 547.84 201.216 600.576 201.216 658.944ZM1032.19 658.944C1032.19 750.08 1018.37 830.464 990.72 900.096C964.096 969.728 927.232 1028.1 880.128 1075.2C834.048 1121.28 779.776 1156.1 717.312 1179.65C654.848 1203.2 588.288 1214.98 517.632 1214.98C446.976 1214.98 379.904 1203.2 316.416 1179.65C253.952 1156.1 199.168 1121.28 152.064 1075.2C105.984 1028.1 69.12 969.728 41.472 900.096C13.824 830.464 0 750.08 0 658.944C0 567.808 13.824 487.936 41.472 419.328C69.12 349.696 106.496 291.328 153.6 244.224C201.728 197.12 257.024 161.792 319.488 138.24C381.952 114.688 448 102.912 517.632 102.912C587.264 102.912 653.312 114.688 715.776 138.24C778.24 161.792 832.512 197.12 878.592 244.224C925.696 291.328 963.072 349.696 990.72 419.328C1018.37 487.936 1032.19 567.808 1032.19 658.944Z" fill="white"/>
<path d="M1226.08 176.64L1411.93 145.92V388.608H1697.63V543.744H1411.93V870.912C1411.93 935.424 1422.17 981.504 1442.65 1009.15C1463.13 1036.8 1497.95 1050.62 1547.1 1050.62C1580.89 1050.62 1610.59 1047.04 1636.19 1039.87C1662.81 1032.7 1683.8 1026.05 1699.16 1019.9L1729.88 1167.36C1708.38 1176.58 1680.22 1185.79 1645.4 1195.01C1610.59 1205.25 1569.63 1210.37 1522.52 1210.37C1465.18 1210.37 1417.05 1202.69 1378.14 1187.33C1340.25 1171.97 1310.04 1149.95 1287.52 1121.28C1264.99 1091.58 1249.12 1056.26 1239.9 1015.3C1230.68 973.312 1226.08 925.696 1226.08 872.448V176.64Z" fill="white"/>
<path d="M2159.92 1061.38C2217.26 1061.38 2260.78 1058.3 2290.48 1052.16V846.336C2280.24 843.264 2265.39 840.192 2245.93 837.12C2226.48 834.048 2204.97 832.512 2181.42 832.512C2160.94 832.512 2139.95 834.048 2118.44 837.12C2097.96 840.192 2079.02 845.824 2061.61 854.016C2045.23 862.208 2031.92 873.984 2021.68 889.344C2011.44 903.68 2006.32 922.112 2006.32 944.64C2006.32 988.672 2020.14 1019.39 2047.79 1036.8C2075.44 1053.18 2112.81 1061.38 2159.92 1061.38ZM2144.56 368.64C2206 368.64 2257.71 376.32 2299.69 391.68C2341.68 407.04 2374.96 428.544 2399.53 456.192C2425.13 483.84 2443.05 517.632 2453.29 557.568C2464.56 596.48 2470.19 639.488 2470.19 686.592V1173.5C2441.52 1179.65 2398 1186.82 2339.63 1195.01C2282.28 1204.22 2217.26 1208.83 2144.56 1208.83C2096.43 1208.83 2052.4 1204.22 2012.46 1195.01C1972.52 1185.79 1938.22 1170.94 1909.55 1150.46C1881.9 1129.98 1859.88 1103.36 1843.5 1070.59C1828.14 1037.82 1820.46 997.376 1820.46 949.248C1820.46 903.168 1829.16 864.256 1846.57 832.512C1865 800.768 1889.58 775.168 1920.3 755.712C1951.02 735.232 1986.35 720.896 2026.28 712.704C2067.24 703.488 2109.74 698.88 2153.77 698.88C2174.25 698.88 2195.76 700.416 2218.28 703.488C2240.81 705.536 2264.88 709.632 2290.48 715.776V685.056C2290.48 663.552 2287.92 643.072 2282.8 623.616C2277.68 604.16 2268.46 587.264 2255.15 572.928C2242.86 557.568 2225.96 545.792 2204.46 537.6C2183.98 529.408 2157.87 525.312 2126.12 525.312C2083.12 525.312 2043.69 528.384 2007.85 534.528C1972.01 540.672 1942.83 547.84 1920.3 556.032L1897.26 405.504C1920.81 397.312 1955.12 389.12 2000.17 380.928C2045.23 372.736 2093.36 368.64 2144.56 368.64Z" fill="white"/>
<path d="M2883.65 701.952C2907.2 677.376 2932.29 651.264 2958.91 623.616C2985.54 594.944 3011.65 566.784 3037.25 539.136C3062.85 510.464 3086.91 483.328 3109.44 457.728C3132.99 431.104 3152.96 408.064 3169.34 388.608H3388.99C3337.79 445.952 3283.52 505.344 3226.18 566.784C3169.86 628.224 3113.02 688.128 3055.68 746.496C3086.4 772.096 3118.66 803.328 3152.45 840.192C3186.24 876.032 3219.01 914.432 3250.75 955.392C3282.5 996.352 3312.19 1037.31 3339.84 1078.27C3367.49 1119.23 3390.53 1157.12 3408.96 1191.94H3193.92C3175.49 1160.19 3153.98 1126.91 3129.41 1092.1C3105.86 1057.28 3080.26 1023.49 3052.61 990.72C3024.96 957.952 2996.8 927.232 2968.13 898.56C2939.46 868.864 2911.3 843.776 2883.65 823.296V1191.94H2697.79V30.72L2883.65 0V701.952Z" fill="white"/>
<path d="M4202.74 1167.36C4166.9 1176.58 4120.3 1185.79 4062.96 1195.01C4005.62 1205.25 3942.64 1210.37 3874.03 1210.37C3809.52 1210.37 3755.25 1201.15 3711.22 1182.72C3668.21 1164.29 3633.39 1138.69 3606.77 1105.92C3581.17 1073.15 3562.74 1034.24 3551.47 989.184C3540.21 943.104 3534.58 892.928 3534.58 838.656V388.608H3720.43V809.472C3720.43 895.488 3732.72 956.928 3757.3 993.792C3782.9 1030.66 3826.93 1049.09 3889.39 1049.09C3911.92 1049.09 3935.47 1048.06 3960.05 1046.02C3985.65 1043.97 4004.59 1041.41 4016.88 1038.34V388.608H4202.74V1167.36Z" fill="white"/>
<path d="M4439.29 414.72C4475.13 404.48 4521.72 394.752 4579.07 385.536C4636.41 376.32 4699.9 371.712 4769.53 371.712C4835.07 371.712 4889.85 380.928 4933.88 399.36C4977.92 416.768 5012.73 441.856 5038.33 474.624C5064.96 506.368 5083.39 545.28 5093.63 591.36C5104.89 636.416 5110.52 686.08 5110.52 740.352V1191.94H4924.67V769.536C4924.67 726.528 4921.6 690.176 4915.45 660.48C4910.33 629.76 4901.12 605.184 4887.8 586.752C4875.52 567.296 4858.11 553.472 4835.58 545.28C4814.08 536.064 4787.45 531.456 4755.71 531.456C4732.16 531.456 4707.58 532.992 4681.98 536.064C4656.38 539.136 4637.44 541.696 4625.15 543.744V1191.94H4439.29V414.72Z" fill="white"/>
<path d="M5525.18 1191.94H5339.33V388.608H5525.18V1191.94ZM5545.15 153.6C5545.15 188.416 5533.89 216.064 5511.36 236.544C5488.83 257.024 5462.21 267.264 5431.49 267.264C5399.74 267.264 5372.61 257.024 5350.08 236.544C5327.55 216.064 5316.29 188.416 5316.29 153.6C5316.29 117.76 5327.55 89.6 5350.08 69.12C5372.61 48.64 5399.74 38.4 5431.49 38.4C5462.21 38.4 5488.83 48.64 5511.36 69.12C5533.89 89.6 5545.15 117.76 5545.15 153.6Z" fill="white"/>
<path d="M5753.08 176.64L5938.93 145.92V388.608H6224.63V543.744H5938.93V870.912C5938.93 935.424 5949.17 981.504 5969.65 1009.15C5990.13 1036.8 6024.95 1050.62 6074.1 1050.62C6107.89 1050.62 6137.59 1047.04 6163.19 1039.87C6189.81 1032.7 6210.8 1026.05 6226.16 1019.9L6256.88 1167.36C6235.38 1176.58 6207.22 1185.79 6172.4 1195.01C6137.59 1205.25 6096.63 1210.37 6049.52 1210.37C5992.18 1210.37 5944.05 1202.69 5905.14 1187.33C5867.25 1171.97 5837.04 1149.95 5814.52 1121.28C5791.99 1091.58 5776.12 1056.26 5766.9 1015.3C5757.68 973.312 5753.08 925.696 5753.08 872.448V176.64Z" fill="white"/>
<path d="M7060.16 388.608C6977.22 693.76 6880.96 970.24 6771.4 1218.05C6750.92 1264.13 6729.92 1303.55 6708.42 1336.32C6686.92 1369.09 6662.85 1396.22 6636.23 1417.73C6609.6 1439.23 6579.91 1454.59 6547.14 1463.81C6514.37 1474.05 6476.48 1479.17 6433.48 1479.17C6404.8 1479.17 6376.13 1476.1 6347.46 1469.95C6319.81 1463.81 6298.82 1457.15 6284.48 1449.98L6318.28 1300.99C6355.14 1315.33 6391.49 1322.5 6427.33 1322.5C6475.46 1322.5 6512.84 1310.72 6539.46 1287.17C6567.11 1264.64 6591.17 1229.31 6611.65 1181.18C6553.28 1068.54 6496.96 945.664 6442.69 812.544C6389.44 679.424 6341.83 538.112 6299.84 388.608H6497.99C6508.23 431.616 6520.52 478.208 6534.85 528.384C6550.21 578.56 6566.6 629.76 6584 681.984C6601.41 733.184 6619.84 784.384 6639.3 835.584C6658.76 886.784 6678.21 934.4 6697.67 978.432C6730.44 887.296 6761.16 790.528 6789.83 688.128C6818.5 584.704 6844.61 484.864 6868.16 388.608H7060.16Z" fill="white"/>
</svg>
